<svg xmlns="http://www.w3.org/2000/svg" version="1.1" xmlns:xlink="http://www.w3.org/1999/xlink" xmlns:svgjs="http://svgjs.dev/svgjs" width="2000" height="1999" viewBox="0 0 2000 1999"><g transform="matrix(1,0,0,1,-0.431486880466764,-0.4312711370263287)"><svg viewBox="0 0 343 343" data-background-color="#ffffff" preserveAspectRatio="xMidYMid meet" height="1999" width="2000" xmlns="http://www.w3.org/2000/svg" xmlns:xlink="http://www.w3.org/1999/xlink"><g id="tight-bounds" transform="matrix(1,0,0,1,0.0740000000000407,0.07400000000001228)"><svg viewBox="0 0 342.85155851775386 342.85155851775386" height="342.85155851775386" width="342.85155851775386"><g><svg></svg></g><g><svg viewBox="0 0 342.85155851775386 342.85155851775386" height="342.85155851775386" width="342.85155851775386"><g><path d="M0 171.426c0-94.676 76.75-171.426 171.426-171.426 94.676 0 171.426 76.75 171.426 171.426 0 94.676-76.75 171.426-171.426 171.426-94.676 0-171.426-76.75-171.426-171.426zM171.426 340.954c93.628 0 169.528-75.9 169.528-169.528 0-93.628-75.9-169.528-169.528-169.528-93.628 0-169.528 75.9-169.528 169.528 0 93.628 75.9 169.528 169.528 169.528z" data-fill-palette-color="tertiary" fill="#2d4f8f" stroke="transparent"></path><ellipse rx="164.56874808852186" ry="164.56874808852186" cx="171.42577925887693" cy="171.42577925887693" fill="#2d4f8f" stroke="transparent" stroke-width="0" fill-opacity="1" data-fill-palette-color="tertiary"></ellipse></g><g transform="matrix(1,0,0,1,64.84655864529837,146.242858965423)"><svg viewBox="0 0 213.1584412271571 50.365840586907844" height="50.365840586907844" width="213.1584412271571"><g><svg viewBox="0 0 213.1584412271571 50.365840586907844" height="50.365840586907844" width="213.1584412271571"><g><svg viewBox="0 0 265.0999658264425 62.63877021027977" height="50.365840586907844" width="213.1584412271571"><g transform="matrix(1,0,0,1,51.941524599285344,8.657022510972098)"><svg viewBox="0 0 213.1584412271571 45.32472518833558" height="45.32472518833558" width="213.1584412271571"><g id="textblocktransform"><svg viewBox="0 0 213.1584412271571 45.32472518833558" height="45.32472518833558" width="213.1584412271571" id="textblock"><g><svg viewBox="0 0 213.1584412271571 26.174886882187575" height="26.174886882187575" width="213.1584412271571"><g transform="matrix(1,0,0,1,0,0)"><svg width="213.1584412271571" viewBox="3.8 -36.75 303.32 37.25" height="26.174886882187575" data-palette-color="#ffffff"><path d="M15.6-13.35L24.3 0 17.95 0 13.3-7.5 12-10.05 9-6.8 9 0 3.8 0 3.8-36.75 8.95-36.75 8.95-16.6 8.85-12.7 17.6-22.95 24.25-22.95 15.6-13.35ZM36.55 0.5Q31.8 0.5 30.02-2.3 28.25-5.1 28.25-10.1L28.25-10.1 28.25-22.95 33.65-22.95 33.65-11.45Q33.65-8.6 33.97-7.03 34.3-5.45 35.27-4.7 36.25-3.95 38.2-3.95L38.2-3.95Q39.6-3.95 40.9-4.75 42.2-5.55 43.02-6.93 43.85-8.3 43.85-9.95L43.85-9.95 43.85-22.95 49.2-22.95 49.2 0 44.8 0 44.2-3.35Q42.95-1.4 41.07-0.45 39.2 0.5 36.55 0.5L36.55 0.5ZM70 0.5Q67.19 0.5 64.97-0.88 62.74-2.25 61.89-4.05L61.89-4.05 61.8 0 56.59 0 56.59-36.75 61.89-36.75 61.89-22.6 61.64-18.7Q62.49-20.7 64.97-22.13 67.44-23.55 70.34-23.55L70.34-23.55Q73.75-23.55 76.27-22.03 78.8-20.5 80.14-17.78 81.5-15.05 81.5-11.45L81.5-11.45Q81.5-7.8 79.92-5.1 78.34-2.4 75.72-0.95 73.09 0.5 70 0.5L70 0.5ZM69.09-4Q72.34-4 74.09-6.08 75.84-8.15 75.84-11.45L75.84-11.45Q75.84-14.8 74.12-16.88 72.39-18.95 69.09-18.95L69.09-18.95Q66.25-18.95 64.3-16.98 62.34-15 62.34-11.8L62.34-11.8 62.34-11.45Q62.34-9.3 63.27-7.6 64.19-5.9 65.72-4.95 67.25-4 69.09-4L69.09-4ZM98.09 0.5Q93.99 0.5 91.24-1.13 88.49-2.75 87.19-5.48 85.89-8.2 85.89-11.45L85.89-11.45Q85.89-15.1 87.42-17.85 88.94-20.6 91.64-22.08 94.34-23.55 97.74-23.55L97.74-23.55Q103.04-23.55 105.62-20.63 108.19-17.7 108.19-12.4L108.19-12.4Q108.19-11.05 108.04-9.6L108.04-9.6 91.54-9.6Q92.09-6.55 93.72-5.2 95.34-3.85 98.24-3.85L98.24-3.85Q100.64-3.85 102.19-4.25 103.74-4.65 105.04-5.35L105.04-5.35 106.69-1.5Q105.44-0.7 103.29-0.1 101.14 0.5 98.09 0.5L98.09 0.5ZM91.54-13.35L102.94-13.35Q102.99-16.45 101.59-17.73 100.19-19 97.59-19L97.59-19Q92.34-19 91.54-13.35L91.54-13.35ZM115.79-10.15L115.79-14.95 132.94-14.95 132.94-10.15 115.79-10.15ZM152.14 0.5Q149.04 0.5 146.41-0.98 143.79-2.45 142.21-5.18 140.64-7.9 140.64-11.55L140.64-11.55Q140.64-15.15 142.01-17.85 143.39-20.55 145.94-22.05 148.49-23.55 151.94-23.55L151.94-23.55Q153.94-23.55 155.69-22.85 157.44-22.15 158.64-21.13 159.84-20.1 160.24-19.1L160.24-19.1 160.34-22.95 165.49-22.95 165.49 0 160.39 0 160.29-4.05Q159.44-2.25 157.19-0.88 154.94 0.5 152.14 0.5L152.14 0.5ZM153.04-4Q155.89-4 157.84-5.98 159.79-7.95 159.79-11.15L159.79-11.15 159.79-11.5Q159.79-13.65 158.89-15.35 157.99-17.05 156.44-18 154.89-18.95 153.04-18.95L153.04-18.95Q149.84-18.95 148.09-16.88 146.34-14.8 146.34-11.5L146.34-11.5Q146.34-8.15 148.06-6.08 149.79-4 153.04-4L153.04-4ZM182.88 0.5Q179.78 0.5 177.16-0.98 174.53-2.45 172.96-5.18 171.38-7.9 171.38-11.55L171.38-11.55Q171.38-17 174.44-20.28 177.49-23.55 182.69-23.55L182.69-23.55Q185.59-23.55 187.99-22.13 190.38-20.7 191.24-18.7L191.24-18.7 190.99-22.6 190.99-36.75 196.28-36.75 196.28 0 191.13 0 191.03-4.05Q190.19-2.25 187.94-0.88 185.69 0.5 182.88 0.5L182.88 0.5ZM183.78-4.05Q186.63-4.05 188.59-6.03 190.53-8 190.53-11.2L190.53-11.2 190.53-11.55Q190.53-13.7 189.63-15.4 188.74-17.1 187.19-18.05 185.63-19 183.78-19L183.78-19Q180.59-19 178.84-16.93 177.09-14.85 177.09-11.55L177.09-11.55Q177.09-8.2 178.81-6.13 180.53-4.05 183.78-4.05L183.78-4.05ZM211.88 0L199.78-22.95 205.93-22.95 210.88-12.6 212.48-8.45 214.08-12.6 218.98-22.95 224.98-22.95 212.93 0 211.88 0ZM228.83 0L228.83-22.95 234.43-22.95 234.43 0 228.83 0ZM231.58-27.25Q230.03-27.25 228.98-28.3 227.93-29.35 227.93-30.9L227.93-30.9Q227.93-32.3 228.98-33.3 230.03-34.3 231.58-34.3L231.58-34.3Q233.08-34.3 234.13-33.3 235.18-32.3 235.18-30.9L235.18-30.9Q235.18-29.35 234.16-28.3 233.13-27.25 231.58-27.25L231.58-27.25ZM249.83 0.5Q247.43 0.5 244.85-0.13 242.28-0.75 241.18-1.6L241.18-1.6 242.98-5.85Q245.98-3.75 249.83-3.75L249.83-3.75Q253.68-3.75 253.68-6L253.68-6Q253.68-7 252.88-7.55 252.08-8.1 250.03-8.85L250.03-8.85 248.13-9.55Q245.13-10.75 243.38-12.43 241.63-14.1 241.63-16.85L241.63-16.85Q241.63-20 244.1-21.78 246.58-23.55 250.73-23.55L250.73-23.55Q252.78-23.55 254.75-23.1 256.73-22.65 257.78-21.95L257.78-21.95 255.83-17.65Q255.18-18.3 253.75-18.78 252.33-19.25 250.58-19.25L250.58-19.25Q247.03-19.25 247.03-17.1L247.03-17.1Q247.03-15.9 247.98-15.28 248.93-14.65 251.08-13.9L251.08-13.9Q251.28-13.85 252.63-13.35L252.63-13.35Q255.83-12.1 257.38-10.5 258.93-8.9 258.93-6.4L258.93-6.4Q258.93-3 256.35-1.25 253.78 0.5 249.83 0.5L249.83 0.5ZM275.23 0.5Q271.68 0.5 268.93-1.1 266.18-2.7 264.68-5.45 263.18-8.2 263.18-11.55L263.18-11.55Q263.18-14.85 264.65-17.6 266.13-20.35 268.88-21.95 271.63-23.55 275.23-23.55L275.23-23.55Q278.83-23.55 281.55-21.95 284.28-20.35 285.75-17.6 287.23-14.85 287.23-11.55L287.23-11.55Q287.23-8.2 285.73-5.45 284.23-2.7 281.5-1.1 278.78 0.5 275.23 0.5L275.23 0.5ZM275.38-3.9Q278.28-3.9 279.95-6.05 281.63-8.2 281.63-11.45L281.63-11.45Q281.63-14.7 279.83-16.93 278.03-19.15 275.08-19.15L275.08-19.15Q272.23-19.15 270.5-16.95 268.78-14.75 268.78-11.45L268.78-11.45Q268.78-8.25 270.63-6.08 272.48-3.9 275.38-3.9L275.38-3.9ZM292.82 0L292.82-22.95 298.22-22.95 298.22-18.45Q299.02-20.75 300.82-22.15 302.62-23.55 304.92-23.55L304.92-23.55Q306.52-23.55 307.12-23.25L307.12-23.25 306.37-17.8Q305.92-18.1 304.42-18.1L304.42-18.1Q302.07-18.1 300.15-16.6 298.22-15.1 298.22-11.8L298.22-11.8 298.22 0 292.82 0Z" opacity="1" transform="matrix(1,0,0,1,0,0)" fill="#ffffff" class="wordmark-text-0" data-fill-palette-color="quaternary" id="text-0"></path></svg></g></svg></g><g transform="matrix(1,0,0,1,0,32.35414947778689)"><svg viewBox="0 0 213.1584412271571 12.970575710548685" height="12.970575710548685" width="213.1584412271571"><g transform="matrix(1,0,0,1,0,0)"><svg width="213.1584412271571" viewBox="4.25 -37.5 821.6 50" height="12.970575710548685" data-palette-color="#ffffff"><path d="M7.8 0L4.25 0 4.25-35.7 7.8-35.7 7.8-11 7.95-11 18.7-24.25 22.75-24.25 14.65-14.55 23.85 0 19.9 0 12.55-12 7.8-6.4 7.8 0ZM36.75 0.6L36.75 0.6Q33.8 0.6 31.45-0.53 29.1-1.65 27.75-3.65 26.4-5.65 26.4-8.15L26.4-8.15Q26.4-10.25 27.3-11.93 28.2-13.6 29.6-14.83 31-16.05 32.5-16.85L32.5-16.85 32.5-17.05Q30.75-18.3 29.37-20.1 28-21.9 28-24.4L28-24.4Q28-26.85 29.17-28.68 30.35-30.5 32.35-31.5 34.35-32.5 36.85-32.5L36.85-32.5Q41.05-32.5 43.42-30.13 45.8-27.75 45.8-24.05L45.8-24.05Q45.8-22.35 45.07-20.85 44.35-19.35 43.32-18.18 42.3-17 41.35-16.25L41.35-16.25 41.35-16.05Q42.75-15.2 44.02-14.13 45.3-13.05 46.1-11.53 46.9-10 46.9-7.9L46.9-7.9Q46.9-5.5 45.65-3.6 44.4-1.7 42.1-0.55 39.8 0.6 36.75 0.6ZM36.85-2.15L36.85-2.15Q38.8-2.15 40.27-2.9 41.75-3.65 42.57-4.98 43.4-6.3 43.4-7.95L43.4-7.95Q43.4-10.15 42.15-11.53 40.9-12.9 38.85-13.83 36.8-14.75 34.45-15.7L34.45-15.7Q32.45-14.4 31.07-12.6 29.7-10.8 29.7-8.45L29.7-8.45Q29.7-6.65 30.62-5.23 31.55-3.8 33.17-2.98 34.8-2.15 36.85-2.15ZM39-17.2L39-17.2Q40.75-18.75 41.67-20.4 42.6-22.05 42.6-23.9L42.6-23.9Q42.6-25.5 41.92-26.85 41.25-28.2 39.95-28.98 38.65-29.75 36.8-29.75L36.8-29.75Q34.45-29.75 32.92-28.28 31.4-26.8 31.4-24.4L31.4-24.4Q31.4-22.45 32.47-21.13 33.55-19.8 35.3-18.9 37.05-18 39-17.2ZM59.4 0.6L59.4 0.6Q56.8 0.6 54.45-0.38 52.1-1.35 50.4-2.75L50.4-2.75 52.25-5.2Q53.8-3.95 55.52-3.1 57.25-2.25 59.55-2.25L59.55-2.25Q62.05-2.25 63.3-3.45 64.55-4.65 64.55-6.3L64.55-6.3Q64.55-7.6 63.7-8.47 62.85-9.35 61.57-9.98 60.3-10.6 58.9-11.1L58.9-11.1Q57.2-11.7 55.5-12.55 53.8-13.4 52.67-14.7 51.55-16 51.55-18.05L51.55-18.05Q51.55-20.9 53.72-22.88 55.9-24.85 59.8-24.85L59.8-24.85Q62-24.85 63.9-24.05 65.8-23.25 67.15-22.15L67.15-22.15 65.4-19.8Q64.15-20.7 62.82-21.33 61.5-21.95 59.8-21.95L59.8-21.95Q57.4-21.95 56.25-20.83 55.1-19.7 55.1-18.25L55.1-18.25Q55.1-17.05 55.87-16.28 56.65-15.5 57.9-14.95 59.15-14.4 60.55-13.85L60.55-13.85Q62.35-13.2 64.07-12.38 65.8-11.55 66.95-10.2 68.1-8.85 68.1-6.5L68.1-6.5Q68.1-4.6 67.1-2.98 66.1-1.35 64.15-0.38 62.2 0.6 59.4 0.6ZM94.39 0.6L94.39 0.6Q92.69 0.6 90.87-0.23 89.04-1.05 87.39-2.5L87.39-2.5 87.24-2.5 86.89 0 83.99 0 83.99-35.7 87.59-35.7 87.59-25.8 87.49-21.35Q89.19-22.85 91.19-23.85 93.19-24.85 95.24-24.85L95.24-24.85Q98.44-24.85 100.59-23.33 102.74-21.8 103.82-19.03 104.89-16.25 104.89-12.5L104.89-12.5Q104.89-8.35 103.42-5.43 101.94-2.5 99.54-0.95 97.14 0.6 94.39 0.6ZM93.79-2.5L93.79-2.5Q95.94-2.5 97.59-3.7 99.24-4.9 100.19-7.15 101.14-9.4 101.14-12.45L101.14-12.45Q101.14-15.2 100.47-17.3 99.79-19.4 98.32-20.58 96.84-21.75 94.44-21.75L94.44-21.75Q92.84-21.75 91.14-20.88 89.44-20 87.59-18.25L87.59-18.25 87.59-5.15Q89.29-3.7 90.94-3.1 92.59-2.5 93.79-2.5ZM121.14 0.6L121.14 0.6Q117.94 0.6 115.34-0.93 112.74-2.45 111.19-5.28 109.64-8.1 109.64-12.1L109.64-12.1Q109.64-16 111.19-18.88 112.74-21.75 115.21-23.3 117.69-24.85 120.49-24.85L120.49-24.85Q123.49-24.85 125.64-23.45 127.79-22.05 128.91-19.53 130.04-17 130.04-13.5L130.04-13.5Q130.04-12.95 129.99-12.35 129.94-11.75 129.84-11.3L129.84-11.3 112.49-11.3 112.44-13.95 126.79-13.95Q126.79-17.85 125.14-19.88 123.49-21.9 120.54-21.9L120.54-21.9Q118.74-21.9 117.04-20.88 115.34-19.85 114.24-17.68 113.14-15.5 113.14-12.1L113.14-12.1Q113.14-8.85 114.29-6.7 115.44-4.55 117.36-3.45 119.29-2.35 121.59-2.35L121.59-2.35Q123.39-2.35 124.89-2.9 126.39-3.45 127.74-4.3L127.74-4.3 129.09-1.9Q127.54-0.9 125.61-0.15 123.69 0.6 121.14 0.6ZM142.34 0.6L142.34 0.6Q139.74 0.6 137.39-0.38 135.04-1.35 133.34-2.75L133.34-2.75 135.19-5.2Q136.74-3.95 138.46-3.1 140.19-2.25 142.49-2.25L142.49-2.25Q144.99-2.25 146.24-3.45 147.49-4.65 147.49-6.3L147.49-6.3Q147.49-7.6 146.64-8.47 145.79-9.35 144.51-9.98 143.24-10.6 141.84-11.1L141.84-11.1Q140.14-11.7 138.44-12.55 136.74-13.4 135.61-14.7 134.49-16 134.49-18.05L134.49-18.05Q134.49-20.9 136.66-22.88 138.84-24.85 142.74-24.85L142.74-24.85Q144.94-24.85 146.84-24.05 148.74-23.25 150.09-22.15L150.09-22.15 148.34-19.8Q147.09-20.7 145.76-21.33 144.44-21.95 142.74-21.95L142.74-21.95Q140.34-21.95 139.19-20.83 138.04-19.7 138.04-18.25L138.04-18.25Q138.04-17.05 138.81-16.28 139.59-15.5 140.84-14.95 142.09-14.4 143.49-13.85L143.49-13.85Q145.29-13.2 147.01-12.38 148.74-11.55 149.89-10.2 151.04-8.85 151.04-6.5L151.04-6.5Q151.04-4.6 150.04-2.98 149.04-1.35 147.09-0.38 145.14 0.6 142.34 0.6ZM164.28 0.6L164.28 0.6Q160.48 0.6 159.03-1.6 157.58-3.8 157.58-7.3L157.58-7.3 157.58-21.25 153.93-21.25 153.93-24 157.73-24.25 158.18-31.1 161.23-31.1 161.23-24.25 167.88-24.25 167.88-21.25 161.23-21.25 161.23-7.2Q161.23-4.95 162.06-3.68 162.88-2.4 165.08-2.4L165.08-2.4Q165.73-2.4 166.51-2.6 167.28-2.8 167.88-3.05L167.88-3.05 168.63-0.3Q167.63 0.05 166.46 0.33 165.28 0.6 164.28 0.6ZM187.08 10.4L183.48 10.4 183.48-24.25 186.48-24.25 186.78-21.35 186.93-21.35Q188.58-22.75 190.6-23.8 192.63-24.85 194.78-24.85L194.78-24.85Q197.93-24.85 200.08-23.33 202.23-21.8 203.3-19 204.38-16.2 204.38-12.5L204.38-12.5Q204.38-8.35 202.9-5.43 201.43-2.5 199.03-0.95 196.63 0.6 193.88 0.6L193.88 0.6Q192.18 0.6 190.45-0.15 188.73-0.9 186.98-2.25L186.98-2.25 187.08 2.05 187.08 10.4ZM193.28-2.5L193.28-2.5Q195.43-2.5 197.08-3.7 198.73-4.9 199.68-7.15 200.63-9.4 200.63-12.45L200.63-12.45Q200.63-15.2 199.95-17.3 199.28-19.4 197.8-20.58 196.33-21.75 193.93-21.75L193.93-21.75Q192.33-21.75 190.65-20.88 188.98-20 187.08-18.25L187.08-18.25 187.08-5.15Q188.83-3.7 190.45-3.1 192.08-2.5 193.28-2.5ZM214.68 0L211.08 0 211.08-24.25 214.08-24.25 214.38-19.8 214.53-19.8Q215.78-22.1 217.55-23.48 219.33-24.85 221.43-24.85L221.43-24.85Q222.18-24.85 222.78-24.73 223.38-24.6 223.93-24.35L223.93-24.35 223.23-21.15Q222.63-21.35 222.15-21.45 221.68-21.55 220.93-21.55L220.93-21.55Q219.38-21.55 217.68-20.28 215.98-19 214.68-15.8L214.68-15.8 214.68 0ZM233.57 0.6L233.57 0.6Q231.57 0.6 229.97-0.2 228.37-1 227.42-2.53 226.47-4.05 226.47-6.2L226.47-6.2Q226.47-10.2 230.1-12.33 233.72-14.45 241.57-15.3L241.57-15.3Q241.57-16.9 241.15-18.43 240.72-19.95 239.6-20.88 238.47-21.8 236.37-21.8L236.37-21.8Q234.17-21.8 232.3-20.95 230.42-20.1 229.02-19.15L229.02-19.15 227.57-21.65Q228.62-22.35 230.07-23.1 231.52-23.85 233.27-24.35 235.02-24.85 236.97-24.85L236.97-24.85Q239.87-24.85 241.7-23.6 243.52-22.35 244.35-20.15 245.17-17.95 245.17-15L245.17-15 245.17 0 242.17 0 241.87-2.95 241.72-2.95Q239.97-1.5 237.92-0.45 235.87 0.6 233.57 0.6ZM234.52-2.35L234.52-2.35Q236.37-2.35 238.02-3.23 239.67-4.1 241.57-5.75L241.57-5.75 241.57-12.85Q237.27-12.35 234.77-11.48 232.27-10.6 231.17-9.35 230.07-8.1 230.07-6.45L230.07-6.45Q230.07-4.3 231.4-3.33 232.72-2.35 234.52-2.35ZM262.52 0.6L262.52 0.6Q259.32 0.6 256.77-0.9 254.22-2.4 252.72-5.23 251.22-8.05 251.22-12.1L251.22-12.1Q251.22-16.1 252.85-18.98 254.47-21.85 257.07-23.35 259.67-24.85 262.77-24.85L262.77-24.85Q265.17-24.85 266.87-23.98 268.57-23.1 269.82-21.95L269.82-21.95 267.92-19.55Q266.87-20.55 265.65-21.18 264.42-21.8 262.92-21.8L262.92-21.8Q260.62-21.8 258.85-20.58 257.07-19.35 256.05-17.15 255.02-14.95 255.02-12.1L255.02-12.1Q255.02-9.2 256-7.03 256.97-4.85 258.72-3.65 260.47-2.45 262.82-2.45L262.82-2.45Q264.57-2.45 266.07-3.18 267.57-3.9 268.72-4.95L268.72-4.95 270.32-2.5Q268.72-1.05 266.72-0.23 264.72 0.6 262.52 0.6ZM283.17 0.6L283.17 0.6Q279.37 0.6 277.92-1.6 276.47-3.8 276.47-7.3L276.47-7.3 276.47-21.25 272.82-21.25 272.82-24 276.62-24.25 277.07-31.1 280.12-31.1 280.12-24.25 286.77-24.25 286.77-21.25 280.12-21.25 280.12-7.2Q280.12-4.95 280.94-3.68 281.77-2.4 283.97-2.4L283.97-2.4Q284.62-2.4 285.39-2.6 286.17-2.8 286.77-3.05L286.77-3.05 287.52-0.3Q286.52 0.05 285.34 0.33 284.17 0.6 283.17 0.6ZM295.97 0L292.37 0 292.37-24.25 295.97-24.25 295.97 0ZM294.22-29.45L294.22-29.45Q293.17-29.45 292.44-30.15 291.72-30.85 291.72-32L291.72-32Q291.72-33.05 292.44-33.75 293.17-34.45 294.22-34.45L294.22-34.45Q295.32-34.45 296.02-33.75 296.72-33.05 296.72-32L296.72-32Q296.72-30.85 296.02-30.15 295.32-29.45 294.22-29.45ZM313.86 0.6L313.86 0.6Q310.66 0.6 308.11-0.9 305.56-2.4 304.06-5.23 302.56-8.05 302.56-12.1L302.56-12.1Q302.56-16.1 304.19-18.98 305.81-21.85 308.41-23.35 311.01-24.85 314.11-24.85L314.11-24.85Q316.51-24.85 318.21-23.98 319.91-23.1 321.16-21.95L321.16-21.95 319.26-19.55Q318.21-20.55 316.99-21.18 315.76-21.8 314.26-21.8L314.26-21.8Q311.96-21.8 310.19-20.58 308.41-19.35 307.39-17.15 306.36-14.95 306.36-12.1L306.36-12.1Q306.36-9.2 307.34-7.03 308.31-4.85 310.06-3.65 311.81-2.45 314.16-2.45L314.16-2.45Q315.91-2.45 317.41-3.18 318.91-3.9 320.06-4.95L320.06-4.95 321.66-2.5Q320.06-1.05 318.06-0.23 316.06 0.6 313.86 0.6ZM336.76 0.6L336.76 0.6Q333.56 0.6 330.96-0.93 328.36-2.45 326.81-5.28 325.26-8.1 325.26-12.1L325.26-12.1Q325.26-16 326.81-18.88 328.36-21.75 330.84-23.3 333.31-24.85 336.11-24.85L336.11-24.85Q339.11-24.85 341.26-23.45 343.41-22.05 344.54-19.53 345.66-17 345.66-13.5L345.66-13.5Q345.66-12.95 345.61-12.35 345.56-11.75 345.46-11.3L345.46-11.3 328.11-11.3 328.06-13.95 342.41-13.95Q342.41-17.85 340.76-19.88 339.11-21.9 336.16-21.9L336.16-21.9Q334.36-21.9 332.66-20.88 330.96-19.85 329.86-17.68 328.76-15.5 328.76-12.1L328.76-12.1Q328.76-8.85 329.91-6.7 331.06-4.55 332.99-3.45 334.91-2.35 337.21-2.35L337.21-2.35Q339.01-2.35 340.51-2.9 342.01-3.45 343.36-4.3L343.36-4.3 344.71-1.9Q343.16-0.9 341.24-0.15 339.31 0.6 336.76 0.6ZM357.96 0.6L357.96 0.6Q355.36 0.6 353.01-0.38 350.66-1.35 348.96-2.75L348.96-2.75 350.81-5.2Q352.36-3.95 354.08-3.1 355.81-2.25 358.11-2.25L358.11-2.25Q360.61-2.25 361.86-3.45 363.11-4.65 363.11-6.3L363.11-6.3Q363.11-7.6 362.26-8.47 361.41-9.35 360.13-9.98 358.86-10.6 357.46-11.1L357.46-11.1Q355.76-11.7 354.06-12.55 352.36-13.4 351.23-14.7 350.11-16 350.11-18.05L350.11-18.05Q350.11-20.9 352.28-22.88 354.46-24.85 358.36-24.85L358.36-24.85Q360.56-24.85 362.46-24.05 364.36-23.25 365.71-22.15L365.71-22.15 363.96-19.8Q362.71-20.7 361.38-21.33 360.06-21.95 358.36-21.95L358.36-21.95Q355.96-21.95 354.81-20.83 353.66-19.7 353.66-18.25L353.66-18.25Q353.66-17.05 354.43-16.28 355.21-15.5 356.46-14.95 357.71-14.4 359.11-13.85L359.11-13.85Q360.91-13.2 362.63-12.38 364.36-11.55 365.51-10.2 366.66-8.85 366.66-6.5L366.66-6.5Q366.66-4.6 365.66-2.98 364.66-1.35 362.71-0.38 360.76 0.6 357.96 0.6ZM388.05 0.6L388.05 0.6Q386.05 0.6 384.45-0.2 382.85-1 381.9-2.53 380.95-4.05 380.95-6.2L380.95-6.2Q380.95-10.2 384.58-12.33 388.2-14.45 396.05-15.3L396.05-15.3Q396.05-16.9 395.63-18.43 395.2-19.95 394.08-20.88 392.95-21.8 390.85-21.8L390.85-21.8Q388.65-21.8 386.78-20.95 384.9-20.1 383.5-19.15L383.5-19.15 382.05-21.65Q383.1-22.35 384.55-23.1 386-23.85 387.75-24.35 389.5-24.85 391.45-24.85L391.45-24.85Q394.35-24.85 396.18-23.6 398-22.35 398.83-20.15 399.65-17.95 399.65-15L399.65-15 399.65 0 396.65 0 396.35-2.95 396.2-2.95Q394.45-1.5 392.4-0.45 390.35 0.6 388.05 0.6ZM389-2.35L389-2.35Q390.85-2.35 392.5-3.23 394.15-4.1 396.05-5.75L396.05-5.75 396.05-12.85Q391.75-12.35 389.25-11.48 386.75-10.6 385.65-9.35 384.55-8.1 384.55-6.45L384.55-6.45Q384.55-4.3 385.88-3.33 387.2-2.35 389-2.35ZM415.75 0.6L415.75 0.6Q411.25 0.6 408.53-2.73 405.8-6.05 405.8-12.1L405.8-12.1Q405.8-16 407.28-18.85 408.75-21.7 411.15-23.28 413.55-24.85 416.35-24.85L416.35-24.85Q418.5-24.85 420.08-24.1 421.65-23.35 423.25-22L423.25-22 423.1-26.2 423.1-35.7 426.7-35.7 426.7 0 423.7 0 423.4-2.95 423.25-2.95Q421.85-1.5 419.93-0.45 418 0.6 415.75 0.6ZM416.55-2.5L416.55-2.5Q418.3-2.5 419.9-3.38 421.5-4.25 423.1-5.95L423.1-5.95 423.1-19.1Q421.45-20.55 419.98-21.15 418.5-21.75 416.9-21.75L416.9-21.75Q414.85-21.75 413.18-20.53 411.5-19.3 410.53-17.13 409.55-14.95 409.55-12.1L409.55-12.1Q409.55-7.65 411.38-5.08 413.2-2.5 416.55-2.5ZM444.6 0L440.4 0 431.55-24.25 435.3-24.25 440.1-10.1Q440.65-8.35 441.25-6.55 441.85-4.75 442.4-3L442.4-3 442.6-3Q443.15-4.75 443.75-6.55 444.35-8.35 444.9-10.1L444.9-10.1 449.7-24.25 453.3-24.25 444.6 0ZM461.75 0L458.15 0 458.15-24.25 461.75-24.25 461.75 0ZM460-29.45L460-29.45Q458.95-29.45 458.22-30.15 457.5-30.85 457.5-32L457.5-32Q457.5-33.05 458.22-33.75 458.95-34.45 460-34.45L460-34.45Q461.1-34.45 461.8-33.75 462.5-33.05 462.5-32L462.5-32Q462.5-30.85 461.8-30.15 461.1-29.45 460-29.45ZM476.44 0.6L476.44 0.6Q473.84 0.6 471.49-0.38 469.14-1.35 467.44-2.75L467.44-2.75 469.29-5.2Q470.84-3.95 472.57-3.1 474.29-2.25 476.59-2.25L476.59-2.25Q479.09-2.25 480.34-3.45 481.59-4.65 481.59-6.3L481.59-6.3Q481.59-7.6 480.74-8.47 479.89-9.35 478.62-9.98 477.34-10.6 475.94-11.1L475.94-11.1Q474.24-11.7 472.54-12.55 470.84-13.4 469.72-14.7 468.59-16 468.59-18.05L468.59-18.05Q468.59-20.9 470.77-22.88 472.94-24.85 476.84-24.85L476.84-24.85Q479.04-24.85 480.94-24.05 482.84-23.25 484.19-22.15L484.19-22.15 482.44-19.8Q481.19-20.7 479.87-21.33 478.54-21.95 476.84-21.95L476.84-21.95Q474.44-21.95 473.29-20.83 472.14-19.7 472.14-18.25L472.14-18.25Q472.14-17.05 472.92-16.28 473.69-15.5 474.94-14.95 476.19-14.4 477.59-13.85L477.59-13.85Q479.39-13.2 481.12-12.38 482.84-11.55 483.99-10.2 485.14-8.85 485.14-6.5L485.14-6.5Q485.14-4.6 484.14-2.98 483.14-1.35 481.19-0.38 479.24 0.6 476.44 0.6ZM500.29 0.6L500.29 0.6Q497.34 0.6 494.79-0.9 492.24-2.4 490.69-5.23 489.14-8.05 489.14-12.1L489.14-12.1Q489.14-16.1 490.69-18.98 492.24-21.85 494.79-23.35 497.34-24.85 500.29-24.85L500.29-24.85Q503.24-24.85 505.77-23.35 508.29-21.85 509.87-18.98 511.44-16.1 511.44-12.1L511.44-12.1Q511.44-8.05 509.87-5.23 508.29-2.4 505.77-0.9 503.24 0.6 500.29 0.6ZM500.29-2.45L500.29-2.45Q502.49-2.45 504.17-3.65 505.84-4.85 506.77-7.03 507.69-9.2 507.69-12.1L507.69-12.1Q507.69-14.95 506.77-17.15 505.84-19.35 504.17-20.58 502.49-21.8 500.29-21.8L500.29-21.8Q498.14-21.8 496.47-20.58 494.79-19.35 493.87-17.15 492.94-14.95 492.94-12.1L492.94-12.1Q492.94-9.2 493.87-7.03 494.79-4.85 496.47-3.65 498.14-2.45 500.29-2.45ZM521.64 0L518.04 0 518.04-24.25 521.04-24.25 521.34-19.8 521.49-19.8Q522.74-22.1 524.51-23.48 526.29-24.85 528.39-24.85L528.39-24.85Q529.14-24.85 529.74-24.73 530.34-24.6 530.89-24.35L530.89-24.35 530.19-21.15Q529.59-21.35 529.11-21.45 528.64-21.55 527.89-21.55L527.89-21.55Q526.34-21.55 524.64-20.28 522.94-19 521.64-15.8L521.64-15.8 521.64 0ZM548.03 12.5L545.38 12.5 545.38-37.5 548.03-37.5 548.03 12.5ZM576.28 0.6L576.28 0.6Q573.08 0.6 570.53-0.9 567.98-2.4 566.48-5.23 564.98-8.05 564.98-12.1L564.98-12.1Q564.98-16.1 566.6-18.98 568.23-21.85 570.83-23.35 573.43-24.85 576.53-24.85L576.53-24.85Q578.93-24.85 580.63-23.98 582.33-23.1 583.58-21.95L583.58-21.95 581.68-19.55Q580.63-20.55 579.4-21.18 578.18-21.8 576.68-21.8L576.68-21.8Q574.38-21.8 572.6-20.58 570.83-19.35 569.8-17.15 568.78-14.95 568.78-12.1L568.78-12.1Q568.78-9.2 569.75-7.03 570.73-4.85 572.48-3.65 574.23-2.45 576.58-2.45L576.58-2.45Q578.33-2.45 579.83-3.18 581.33-3.9 582.48-4.95L582.48-4.95 584.08-2.5Q582.48-1.05 580.48-0.23 578.48 0.6 576.28 0.6ZM598.82 0.6L598.82 0.6Q595.87 0.6 593.32-0.9 590.77-2.4 589.22-5.23 587.67-8.05 587.67-12.1L587.67-12.1Q587.67-16.1 589.22-18.98 590.77-21.85 593.32-23.35 595.87-24.85 598.82-24.85L598.82-24.85Q601.77-24.85 604.3-23.35 606.82-21.85 608.4-18.98 609.97-16.1 609.97-12.1L609.97-12.1Q609.97-8.05 608.4-5.23 606.82-2.4 604.3-0.9 601.77 0.6 598.82 0.6ZM598.82-2.45L598.82-2.45Q601.02-2.45 602.7-3.65 604.37-4.85 605.3-7.03 606.22-9.2 606.22-12.1L606.22-12.1Q606.22-14.95 605.3-17.15 604.37-19.35 602.7-20.58 601.02-21.8 598.82-21.8L598.82-21.8Q596.67-21.8 595-20.58 593.32-19.35 592.4-17.15 591.47-14.95 591.47-12.1L591.47-12.1Q591.47-9.2 592.4-7.03 593.32-4.85 595-3.65 596.67-2.45 598.82-2.45ZM620.17 0L616.57 0 616.57-24.25 619.57-24.25 619.87-20.65 620.02-20.65Q621.62-22.4 623.55-23.63 625.47-24.85 627.57-24.85L627.57-24.85Q630.42-24.85 632-23.58 633.57-22.3 634.27-20.15L634.27-20.15Q636.22-22.25 638.2-23.55 640.17-24.85 642.32-24.85L642.32-24.85Q646.07-24.85 647.87-22.45 649.67-20.05 649.67-15.4L649.67-15.4 649.67 0 646.02 0 646.02-14.95Q646.02-18.45 644.9-20.05 643.77-21.65 641.27-21.65L641.27-21.65Q639.82-21.65 638.25-20.68 636.67-19.7 634.92-17.75L634.92-17.75 634.92 0 631.27 0 631.27-14.95Q631.27-18.45 630.15-20.05 629.02-21.65 626.57-21.65L626.57-21.65Q623.67-21.65 620.17-17.75L620.17-17.75 620.17 0ZM661.42 0L657.82 0 657.82-24.25 661.42-24.25 661.42 0ZM659.67-29.45L659.67-29.45Q658.62-29.45 657.89-30.15 657.17-30.85 657.17-32L657.17-32Q657.17-33.05 657.89-33.75 658.62-34.45 659.67-34.45L659.67-34.45Q660.77-34.45 661.47-33.75 662.17-33.05 662.17-32L662.17-32Q662.17-30.85 661.47-30.15 660.77-29.45 659.67-29.45ZM673.52 0L669.92 0 669.92-24.25 672.92-24.25 673.22-20.65 673.37-20.65Q675.12-22.45 677.09-23.65 679.07-24.85 681.52-24.85L681.52-24.85Q685.37-24.85 687.14-22.45 688.92-20.05 688.92-15.4L688.92-15.4 688.92 0 685.27 0 685.27-14.95Q685.27-18.45 684.14-20.05 683.02-21.65 680.47-21.65L680.47-21.65Q678.52-21.65 676.99-20.68 675.47-19.7 673.52-17.75L673.52-17.75 673.52 0ZM705.16 11.3L705.16 11.3Q702.16 11.3 699.91 10.5 697.66 9.7 696.41 8.25 695.16 6.8 695.16 4.75L695.16 4.75Q695.16 3.15 696.11 1.7 697.06 0.25 698.71-0.85L698.71-0.85 698.71-1.05Q697.81-1.65 697.19-2.63 696.56-3.6 696.56-5L696.56-5Q696.56-6.55 697.44-7.7 698.31-8.85 699.21-9.5L699.21-9.5 699.21-9.7Q698.06-10.65 697.09-12.35 696.11-14.05 696.11-16.2L696.11-16.2Q696.11-18.85 697.34-20.78 698.56-22.7 700.59-23.78 702.61-24.85 705.06-24.85L705.06-24.85Q706.06-24.85 706.94-24.68 707.81-24.5 708.41-24.25L708.41-24.25 716.81-24.25 716.81-21.4 711.66-21.4Q712.61-20.5 713.21-19.15 713.81-17.8 713.81-16.15L713.81-16.15Q713.81-13.55 712.64-11.68 711.46-9.8 709.49-8.75 707.51-7.7 705.06-7.7L705.06-7.7Q704.11-7.7 703.16-7.93 702.21-8.15 701.36-8.55L701.36-8.55Q700.66-8 700.19-7.3 699.71-6.6 699.71-5.55L699.71-5.55Q699.71-4.35 700.64-3.58 701.56-2.8 704.01-2.8L704.01-2.8 708.86-2.8Q713.06-2.8 715.14-1.43 717.21-0.05 717.21 2.95L717.21 2.95Q717.21 5.15 715.74 7.05 714.26 8.95 711.56 10.13 708.86 11.3 705.16 11.3ZM705.66 8.7L705.66 8.7Q708.06 8.7 709.84 7.95 711.61 7.2 712.61 6 713.61 4.8 713.61 3.45L713.61 3.45Q713.61 1.7 712.34 1 711.06 0.3 708.56 0.3L708.56 0.3 704.11 0.3Q703.56 0.3 702.71 0.2 701.86 0.1 701.01-0.1L701.01-0.1Q699.61 0.9 698.99 2.02 698.36 3.15 698.36 4.25L698.36 4.25Q698.36 6.3 700.31 7.5 702.26 8.7 705.66 8.7ZM705.06-10.2L705.06-10.2Q706.51-10.2 707.74-10.95 708.96-11.7 709.71-13.05 710.46-14.4 710.46-16.2L710.46-16.2Q710.46-18.05 709.74-19.38 709.01-20.7 707.79-21.43 706.56-22.15 705.06-22.15L705.06-22.15Q702.81-22.15 701.21-20.58 699.61-19 699.61-16.2L699.61-16.2Q699.61-14.4 700.36-13.05 701.11-11.7 702.34-10.95 703.56-10.2 705.06-10.2ZM738.26 0.6L738.26 0.6Q735.66 0.6 733.31-0.38 730.96-1.35 729.26-2.75L729.26-2.75 731.11-5.2Q732.66-3.95 734.38-3.1 736.11-2.25 738.41-2.25L738.41-2.25Q740.91-2.25 742.16-3.45 743.41-4.65 743.41-6.3L743.41-6.3Q743.41-7.6 742.56-8.47 741.71-9.35 740.43-9.98 739.16-10.6 737.76-11.1L737.76-11.1Q736.06-11.7 734.36-12.55 732.66-13.4 731.53-14.7 730.41-16 730.41-18.05L730.41-18.05Q730.41-20.9 732.58-22.88 734.76-24.85 738.66-24.85L738.66-24.85Q740.86-24.85 742.76-24.05 744.66-23.25 746.01-22.15L746.01-22.15 744.26-19.8Q743.01-20.7 741.68-21.33 740.36-21.95 738.66-21.95L738.66-21.95Q736.26-21.95 735.11-20.83 733.96-19.7 733.96-18.25L733.96-18.25Q733.96-17.05 734.73-16.28 735.51-15.5 736.76-14.95 738.01-14.4 739.41-13.85L739.41-13.85Q741.21-13.2 742.93-12.38 744.66-11.55 745.81-10.2 746.96-8.85 746.96-6.5L746.96-6.5Q746.96-4.6 745.96-2.98 744.96-1.35 743.01-0.38 741.06 0.6 738.26 0.6ZM762.11 0.6L762.11 0.6Q759.16 0.6 756.61-0.9 754.06-2.4 752.51-5.23 750.96-8.05 750.96-12.1L750.96-12.1Q750.96-16.1 752.51-18.98 754.06-21.85 756.61-23.35 759.16-24.85 762.11-24.85L762.11-24.85Q765.06-24.85 767.58-23.35 770.11-21.85 771.68-18.98 773.26-16.1 773.26-12.1L773.26-12.1Q773.26-8.05 771.68-5.23 770.11-2.4 767.58-0.9 765.06 0.6 762.11 0.6ZM762.11-2.45L762.11-2.45Q764.31-2.45 765.98-3.65 767.66-4.85 768.58-7.03 769.51-9.2 769.51-12.1L769.51-12.1Q769.51-14.95 768.58-17.15 767.66-19.35 765.98-20.58 764.31-21.8 762.11-21.8L762.11-21.8Q759.96-21.8 758.28-20.58 756.61-19.35 755.68-17.15 754.76-14.95 754.76-12.1L754.76-12.1Q754.76-9.2 755.68-7.03 756.61-4.85 758.28-3.65 759.96-2.45 762.11-2.45ZM789.1 0.6L789.1 0.6Q786.15 0.6 783.6-0.9 781.05-2.4 779.5-5.23 777.95-8.05 777.95-12.1L777.95-12.1Q777.95-16.1 779.5-18.98 781.05-21.85 783.6-23.35 786.15-24.85 789.1-24.85L789.1-24.85Q792.05-24.85 794.58-23.35 797.1-21.85 798.68-18.98 800.25-16.1 800.25-12.1L800.25-12.1Q800.25-8.05 798.68-5.23 797.1-2.4 794.58-0.9 792.05 0.6 789.1 0.6ZM789.1-2.45L789.1-2.45Q791.3-2.45 792.98-3.65 794.65-4.85 795.58-7.03 796.5-9.2 796.5-12.1L796.5-12.1Q796.5-14.95 795.58-17.15 794.65-19.35 792.98-20.58 791.3-21.8 789.1-21.8L789.1-21.8Q786.95-21.8 785.28-20.58 783.6-19.35 782.68-17.15 781.75-14.95 781.75-12.1L781.75-12.1Q781.75-9.2 782.68-7.03 783.6-4.85 785.28-3.65 786.95-2.45 789.1-2.45ZM810.45 0L806.85 0 806.85-24.25 809.85-24.25 810.15-20.65 810.3-20.65Q812.05-22.45 814.03-23.65 816-24.85 818.45-24.85L818.45-24.85Q822.3-24.85 824.08-22.45 825.85-20.05 825.85-15.4L825.85-15.4 825.85 0 822.2 0 822.2-14.95Q822.2-18.45 821.08-20.05 819.95-21.65 817.4-21.65L817.4-21.65Q815.45-21.65 813.93-20.68 812.4-19.7 810.45-17.75L810.45-17.75 810.45 0Z" opacity="1" transform="matrix(1,0,0,1,0,0)" fill="#ffffff" class="slogan-text-1" data-fill-palette-color="quaternary" id="text-1"></path></svg></g></svg></g></svg></g></svg></g><g><svg viewBox="0 0 45.76226200368603 62.63877021027977" height="62.63877021027977" width="45.76226200368603"><g><svg xmlns="http://www.w3.org/2000/svg" viewBox="12.409090848504258 4.933164639037914 39.54029248627865 54.12222181883763" x="0" y="0" height="62.63877021027977" width="45.76226200368603" class="icon-icon-0" data-fill-palette-color="quaternary" id="icon-0"><g fill="#ffffff" data-fill-palette-color="quaternary"><path d="M50.91 22.63A18.58 18.58 0 0 0 13.81 22.31L12.46 37.87A19.77 19.77 0 1 0 51.92 38.21ZM38.5 16A1.5 1.5 0 1 1 37 17.5 1.5 1.5 0 0 1 38.5 16M25.5 16A1.5 1.5 0 1 1 24 17.5 1.5 1.5 0 0 1 25.5 16M42.39 37.85A6 6 0 0 1 41.84 38.13L41.08 53.46A1.62 1.62 0 0 1 37.85 53.54L36.38 38.85 36.05 38.78A9 9 0 0 1 32.05 36.71 9.1 9.1 0 0 1 27.98 38.79L27.67 38.85 26.15 53.54A1.62 1.62 0 0 1 22.92 53.46L22.16 38.13A6 6 0 0 1 21.61 37.85 9 9 0 0 1 28.61 21.39 2.4 2.4 0 0 1 30.37 20.62H33.59A2.37 2.37 0 0 1 35.34 21.4 8.7 8.7 0 0 1 38 21 9 9 0 0 1 42.39 37.85" fill="#ffffff" data-fill-palette-color="quaternary"></path><path d="M38 23A7.3 7.3 0 0 0 36 23.29 2 2 0 0 1 36 23.57 1.3 1.3 0 0 1 35.91 23.85 1.6 1.6 0 0 1 35.79 24.12 2 2 0 0 1 35.64 24.37 1.7 1.7 0 0 1 35.43 24.63 1 1 0 0 1 35.25 24.8 2.1 2.1 0 0 1 34.76 25.14L32.52 26.26A1 1 0 0 1 31.62 26.26L29.39 25.14A2.5 2.5 0 0 1 28.5 24.37 2 2 0 0 1 28.35 24.12 1.6 1.6 0 0 1 28.23 23.85 1.3 1.3 0 0 1 28.14 23.57 2 2 0 0 1 28.09 23.29 7.3 7.3 0 0 0 26 23 7 7 0 1 0 26 37 6.4 6.4 0 0 0 27.49 36.84 7 7 0 0 0 31.25 34.63 1 1 0 0 1 32.75 34.63 6.94 6.94 0 0 0 36.49 36.83 7.07 7.07 0 0 0 41.41 36.11 7 7 0 0 0 38 23" fill="#ffffff" data-fill-palette-color="quaternary"></path><path d="M30 23V22.88Z" fill="#ffffff" data-fill-palette-color="quaternary"></path><path d="M34 23A0.3 0.3 0 0 0 34 22.9 1 1 0 0 0 34 23" fill="#ffffff" data-fill-palette-color="quaternary"></path></g></svg></g></svg></g></svg></g></svg></g></svg></g></svg></g><defs></defs></svg><rect width="342.85155851775386" height="342.85155851775386" fill="none" stroke="none" visibility="hidden"></rect></g></svg></g></svg>