<svg xmlns="http://www.w3.org/2000/svg" version="1.1" xmlns:xlink="http://www.w3.org/1999/xlink" xmlns:svgjs="http://svgjs.dev/svgjs" width="2000" height="1999" viewBox="0 0 2000 1999"><g transform="matrix(1,0,0,1,-0.431486880466764,-0.4312711370263287)"><svg viewBox="0 0 343 343" data-background-color="#ffffff" preserveAspectRatio="xMidYMid meet" height="1999" width="2000" xmlns="http://www.w3.org/2000/svg" xmlns:xlink="http://www.w3.org/1999/xlink"><g id="tight-bounds" transform="matrix(1,0,0,1,0.0740000000000407,0.07400000000001228)"><svg viewBox="0 0 342.85155851775386 342.85155851775386" height="342.85155851775386" width="342.85155851775386"><g><svg></svg></g><g><svg viewBox="0 0 342.85155851775386 342.85155851775386" height="342.85155851775386" width="342.85155851775386"><g><path d="M0 171.426c0-94.676 76.75-171.426 171.426-171.426 94.676 0 171.426 76.75 171.426 171.426 0 94.676-76.75 171.426-171.426 171.426-94.676 0-171.426-76.75-171.426-171.426zM171.426 340.931c93.615 0 169.505-75.89 169.505-169.505 0-93.615-75.89-169.505-169.505-169.505-93.615 0-169.505 75.89-169.505 169.505 0 93.615 75.89 169.505 169.505 169.505z" data-fill-palette-color="tertiary" fill="#2d4f8f" stroke="transparent"></path><ellipse rx="164.56874808852186" ry="164.56874808852186" cx="171.42577925887693" cy="171.42577925887693" fill="#2d4f8f" stroke="transparent" stroke-width="0" fill-opacity="1" data-fill-palette-color="tertiary"></ellipse></g><g transform="matrix(1,0,0,1,64.84655864529837,147.69939830736365)"><svg viewBox="0 0 213.1584412271571 47.45276190302657" height="47.45276190302657" width="213.1584412271571"><g><svg viewBox="0 0 213.1584412271571 47.45276190302657" height="47.45276190302657" width="213.1584412271571"><g><svg viewBox="0 0 261.93906699719395 58.312174304524696" height="47.45276190302657" width="213.1584412271571"><g transform="matrix(1,0,0,1,48.78062577003684,8.059063163649945)"><svg viewBox="0 0 213.1584412271571 42.194047977224805" height="42.194047977224805" width="213.1584412271571"><g id="textblocktransform"><svg viewBox="0 0 213.1584412271571 42.194047977224805" height="42.194047977224805" width="213.1584412271571" id="textblock"><g><svg viewBox="0 0 213.1584412271571 26.174886882187575" height="26.174886882187575" width="213.1584412271571"><g transform="matrix(1,0,0,1,0,0)"><svg width="213.1584412271571" viewBox="3.8 -36.75 303.32 37.25" height="26.174886882187575" data-palette-color="#ffffff"><path d="M15.6-13.35L24.3 0 17.95 0 13.3-7.5 12-10.05 9-6.8 9 0 3.8 0 3.8-36.75 8.95-36.75 8.95-16.6 8.85-12.7 17.6-22.95 24.25-22.95 15.6-13.35ZM36.55 0.5Q31.8 0.5 30.02-2.3 28.25-5.1 28.25-10.1L28.25-10.1 28.25-22.95 33.65-22.95 33.65-11.45Q33.65-8.6 33.97-7.03 34.3-5.45 35.27-4.7 36.25-3.95 38.2-3.95L38.2-3.95Q39.6-3.95 40.9-4.75 42.2-5.55 43.02-6.93 43.85-8.3 43.85-9.95L43.85-9.95 43.85-22.95 49.2-22.95 49.2 0 44.8 0 44.2-3.35Q42.95-1.4 41.07-0.45 39.2 0.5 36.55 0.5L36.55 0.5ZM70 0.5Q67.19 0.5 64.97-0.88 62.74-2.25 61.89-4.05L61.89-4.05 61.8 0 56.59 0 56.59-36.75 61.89-36.75 61.89-22.6 61.64-18.7Q62.49-20.7 64.97-22.13 67.44-23.55 70.34-23.55L70.34-23.55Q73.75-23.55 76.27-22.03 78.8-20.5 80.14-17.78 81.5-15.05 81.5-11.45L81.5-11.45Q81.5-7.8 79.92-5.1 78.34-2.4 75.72-0.95 73.09 0.5 70 0.5L70 0.5ZM69.09-4Q72.34-4 74.09-6.08 75.84-8.15 75.84-11.45L75.84-11.45Q75.84-14.8 74.12-16.88 72.39-18.95 69.09-18.95L69.09-18.95Q66.25-18.95 64.3-16.98 62.34-15 62.34-11.8L62.34-11.8 62.34-11.45Q62.34-9.3 63.27-7.6 64.19-5.9 65.72-4.95 67.25-4 69.09-4L69.09-4ZM98.09 0.5Q93.99 0.5 91.24-1.13 88.49-2.75 87.19-5.48 85.89-8.2 85.89-11.45L85.89-11.45Q85.89-15.1 87.42-17.85 88.94-20.6 91.64-22.08 94.34-23.55 97.74-23.55L97.74-23.55Q103.04-23.55 105.62-20.63 108.19-17.7 108.19-12.4L108.19-12.4Q108.19-11.05 108.04-9.6L108.04-9.6 91.54-9.6Q92.09-6.55 93.72-5.2 95.34-3.85 98.24-3.85L98.24-3.85Q100.64-3.85 102.19-4.25 103.74-4.65 105.04-5.35L105.04-5.35 106.69-1.5Q105.44-0.7 103.29-0.1 101.14 0.5 98.09 0.5L98.09 0.5ZM91.54-13.35L102.94-13.35Q102.99-16.45 101.59-17.73 100.19-19 97.59-19L97.59-19Q92.34-19 91.54-13.35L91.54-13.35ZM115.79-10.15L115.79-14.95 132.94-14.95 132.94-10.15 115.79-10.15ZM152.14 0.5Q149.04 0.5 146.41-0.98 143.79-2.45 142.21-5.18 140.64-7.9 140.64-11.55L140.64-11.55Q140.64-15.15 142.01-17.85 143.39-20.55 145.94-22.05 148.49-23.55 151.94-23.55L151.94-23.55Q153.94-23.55 155.69-22.85 157.44-22.15 158.64-21.13 159.84-20.1 160.24-19.1L160.24-19.1 160.34-22.95 165.49-22.95 165.49 0 160.39 0 160.29-4.05Q159.44-2.25 157.19-0.88 154.94 0.5 152.14 0.5L152.14 0.5ZM153.04-4Q155.89-4 157.84-5.98 159.79-7.95 159.79-11.15L159.79-11.15 159.79-11.5Q159.79-13.65 158.89-15.35 157.99-17.05 156.44-18 154.89-18.95 153.04-18.95L153.04-18.95Q149.84-18.95 148.09-16.88 146.34-14.8 146.34-11.5L146.34-11.5Q146.34-8.15 148.06-6.08 149.79-4 153.04-4L153.04-4ZM182.88 0.5Q179.78 0.5 177.16-0.98 174.53-2.45 172.96-5.18 171.38-7.9 171.38-11.55L171.38-11.55Q171.38-17 174.44-20.28 177.49-23.55 182.69-23.55L182.69-23.55Q185.59-23.55 187.99-22.13 190.38-20.7 191.24-18.7L191.24-18.7 190.99-22.6 190.99-36.75 196.28-36.75 196.28 0 191.13 0 191.03-4.05Q190.19-2.25 187.94-0.88 185.69 0.5 182.88 0.5L182.88 0.5ZM183.78-4.05Q186.63-4.05 188.59-6.03 190.53-8 190.53-11.2L190.53-11.2 190.53-11.55Q190.53-13.7 189.63-15.4 188.74-17.1 187.19-18.05 185.63-19 183.78-19L183.78-19Q180.59-19 178.84-16.93 177.09-14.85 177.09-11.55L177.09-11.55Q177.09-8.2 178.81-6.13 180.53-4.05 183.78-4.05L183.78-4.05ZM211.88 0L199.78-22.95 205.93-22.95 210.88-12.6 212.48-8.45 214.08-12.6 218.98-22.95 224.98-22.95 212.93 0 211.88 0ZM228.83 0L228.83-22.95 234.43-22.95 234.43 0 228.83 0ZM231.58-27.25Q230.03-27.25 228.98-28.3 227.93-29.35 227.93-30.9L227.93-30.9Q227.93-32.3 228.98-33.3 230.03-34.3 231.58-34.3L231.58-34.3Q233.08-34.3 234.13-33.3 235.18-32.3 235.18-30.9L235.18-30.9Q235.18-29.35 234.16-28.3 233.13-27.25 231.58-27.25L231.58-27.25ZM249.83 0.5Q247.43 0.5 244.85-0.13 242.28-0.75 241.18-1.6L241.18-1.6 242.98-5.85Q245.98-3.75 249.83-3.75L249.83-3.75Q253.68-3.75 253.68-6L253.68-6Q253.68-7 252.88-7.55 252.08-8.1 250.03-8.85L250.03-8.85 248.13-9.55Q245.13-10.75 243.38-12.43 241.63-14.1 241.63-16.85L241.63-16.85Q241.63-20 244.1-21.78 246.58-23.55 250.73-23.55L250.73-23.55Q252.78-23.55 254.75-23.1 256.73-22.65 257.78-21.95L257.78-21.95 255.83-17.65Q255.18-18.3 253.75-18.78 252.33-19.25 250.58-19.25L250.58-19.25Q247.03-19.25 247.03-17.1L247.03-17.1Q247.03-15.9 247.98-15.28 248.93-14.65 251.08-13.9L251.08-13.9Q251.28-13.85 252.63-13.35L252.63-13.35Q255.83-12.1 257.38-10.5 258.93-8.9 258.93-6.4L258.93-6.4Q258.93-3 256.35-1.25 253.78 0.5 249.83 0.5L249.83 0.5ZM275.23 0.5Q271.68 0.5 268.93-1.1 266.18-2.7 264.68-5.45 263.18-8.2 263.18-11.55L263.18-11.55Q263.18-14.85 264.65-17.6 266.13-20.35 268.88-21.95 271.63-23.55 275.23-23.55L275.23-23.55Q278.83-23.55 281.55-21.95 284.28-20.35 285.75-17.6 287.23-14.85 287.23-11.55L287.23-11.55Q287.23-8.2 285.73-5.45 284.23-2.7 281.5-1.1 278.78 0.5 275.23 0.5L275.23 0.5ZM275.38-3.9Q278.28-3.9 279.95-6.05 281.63-8.2 281.63-11.45L281.63-11.45Q281.63-14.7 279.83-16.93 278.03-19.15 275.08-19.15L275.08-19.15Q272.23-19.15 270.5-16.95 268.78-14.75 268.78-11.45L268.78-11.45Q268.78-8.25 270.63-6.08 272.48-3.9 275.38-3.9L275.38-3.9ZM292.82 0L292.82-22.95 298.22-22.95 298.22-18.45Q299.02-20.75 300.82-22.15 302.62-23.55 304.92-23.55L304.92-23.55Q306.52-23.55 307.12-23.25L307.12-23.25 306.37-17.8Q305.92-18.1 304.42-18.1L304.42-18.1Q302.07-18.1 300.15-16.6 298.22-15.1 298.22-11.8L298.22-11.8 298.22 0 292.82 0Z" opacity="1" transform="matrix(1,0,0,1,0,0)" fill="#ffffff" class="wordmark-text-0" data-fill-palette-color="quaternary" id="text-0"></path></svg></g></svg></g><g transform="matrix(1,0,0,1,0,32.35414947778689)"><svg viewBox="0 0 213.1584412271571 9.839898499437917" height="9.839898499437917" width="213.1584412271571"><g transform="matrix(1,0,0,1,0,0)"><svg width="213.1584412271571" viewBox="3.45 -36.75 812.29 37.5" height="9.839898499437917" data-palette-color="#ffffff"><path d="M13 0L13 0 5.25 0Q4.3 0 3.88-0.43 3.45-0.85 3.45-1.8L3.45-1.8 3.45-34.2Q3.45-35.15 3.88-35.58 4.3-36 5.25-36L5.25-36 13-36Q13.95-36 14.38-35.58 14.8-35.15 14.8-34.2L14.8-34.2 14.8-22.7 16.8-22.7 21.95-34.35Q22.3-35.25 22.9-35.63 23.5-36 24.45-36L24.45-36 32.15-36Q33-36 33.3-35.58 33.6-35.15 33.25-34.35L33.25-34.35 28.15-22.7Q30.95-22.55 32.63-20.73 34.3-18.9 34.3-15.9L34.3-15.9 34.3-1.8Q34.3-0.85 33.88-0.43 33.45 0 32.5 0L32.5 0 24.8 0Q23.85 0 23.43-0.43 23-0.85 23-1.8L23-1.8 23-11.55Q23-12.35 22.6-12.8 22.2-13.25 21.4-13.25L21.4-13.25 14.8-13.25 14.8-1.8Q14.8-0.85 14.38-0.43 13.95 0 13 0ZM70.5-12.8L70.5-12.8 70.5-7.95Q70.5-6 69.77-4.4 69.05-2.8 67.3-1.65 65.55-0.5 62.57 0.13 59.6 0.75 55.1 0.75L55.1 0.75Q50.6 0.75 47.6 0.13 44.6-0.5 42.85-1.65 41.1-2.8 40.37-4.4 39.65-6 39.65-7.95L39.65-7.95 39.65-12.8Q39.65-16.3 41.17-18.2 42.7-20.1 44.95-20.55L44.95-20.55Q43.3-21.25 42.65-22.65 42-24.05 42-25.95L42-25.95 42-28.85Q42-30.7 42.65-32.15 43.3-33.6 44.8-34.63 46.3-35.65 48.85-36.2 51.4-36.75 55.15-36.75L55.15-36.75Q58.9-36.75 61.42-36.2 63.95-35.65 65.42-34.63 66.9-33.6 67.52-32.15 68.15-30.7 68.15-28.85L68.15-28.85 68.15-25.95Q68.15-24.05 67.5-22.65 66.85-21.25 65.2-20.55L65.2-20.55Q67.45-20.1 68.97-18.2 70.5-16.3 70.5-12.8ZM50.7-12.5L50.7-9.85Q50.7-9.05 51.55-8.53 52.4-8 55.1-8L55.1-8Q57.8-8 58.62-8.53 59.45-9.05 59.45-9.85L59.45-9.85 59.45-12.5Q59.45-13.25 58.62-13.78 57.8-14.3 55.1-14.3L55.1-14.3Q52.4-14.3 51.55-13.78 50.7-13.25 50.7-12.5L50.7-12.5ZM51.95-26.2L51.95-24Q51.95-23.2 52.47-22.68 53-22.15 55.1-22.15L55.1-22.15Q57.25-22.15 57.72-22.68 58.2-23.2 58.2-24L58.2-24 58.2-26.2Q58.2-26.95 57.72-27.48 57.25-28 55.1-28L55.1-28Q53-28 52.47-27.48 51.95-26.95 51.95-26.2L51.95-26.2ZM93 0L93 0 77.2 0Q76.25 0 75.82-0.43 75.4-0.85 75.4-1.8L75.4-1.8 75.4-7.65Q75.4-8.6 75.82-9.03 76.25-9.45 77.2-9.45L77.2-9.45 90.65-9.45Q91.3-9.45 91.62-9.88 91.95-10.3 91.95-10.9L91.95-10.9Q91.95-11.75 91.62-12.15 91.3-12.55 90.65-12.6L90.65-12.6 83.15-13.65Q79.65-14.15 77.52-15.95 75.4-17.75 75.4-21.95L75.4-21.95 75.4-27.2Q75.4-31.45 78.15-33.73 80.9-36 85.75-36L85.75-36 99.75-36Q100.7-36 101.12-35.58 101.55-35.15 101.55-34.2L101.55-34.2 101.55-28.25Q101.55-27.3 101.12-26.88 100.7-26.45 99.75-26.45L99.75-26.45 88.1-26.45Q87.45-26.45 87.1-26.03 86.75-25.6 86.75-24.95L86.75-24.95Q86.75-24.3 87.1-23.85 87.45-23.4 88.1-23.35L88.1-23.35 95.55-22.35Q99.05-21.85 101.2-20.05 103.35-18.25 103.35-14.05L103.35-14.05 103.35-8.8Q103.35-4.55 100.57-2.27 97.8 0 93 0ZM141.04 0L141.04 0 121.84 0Q120.89 0 120.47-0.43 120.04-0.85 120.04-1.8L120.04-1.8 120.04-34.2Q120.04-35.15 120.47-35.58 120.89-36 121.84-36L121.84-36 137.79-36Q142.69-36 145.04-34.13 147.39-32.25 147.39-28.35L147.39-28.35 147.39-25.95Q147.39-23.85 146.67-22.53 145.94-21.2 144.44-20.55L144.44-20.55Q147.64-20.25 149.19-18.35 150.74-16.45 150.74-12.8L150.74-12.8 150.74-8.2Q150.74-4 148.37-2 145.99 0 141.04 0ZM135.54-27.5L131.29-27.5 131.29-22.1 135.54-22.1Q136.49-22.1 136.97-22.6 137.44-23.1 137.44-24.1L137.44-24.1 137.44-25.5Q137.44-26.5 136.97-27 136.49-27.5 135.54-27.5L135.54-27.5ZM137.79-14.4L131.29-14.4 131.29-8.5 137.79-8.5Q138.74-8.5 139.22-9 139.69-9.5 139.69-10.5L139.69-10.5 139.69-12.45Q139.69-13.45 139.22-13.93 138.74-14.4 137.79-14.4L137.79-14.4ZM181.29 0L181.29 0 158.09 0Q157.14 0 156.71-0.43 156.29-0.85 156.29-1.8L156.29-1.8 156.29-34.2Q156.29-35.15 156.71-35.58 157.14-36 158.09-36L158.09-36 181.29-36Q182.24-36 182.66-35.58 183.09-35.15 183.09-34.2L183.09-34.2 183.09-28.35Q183.09-27.4 182.66-26.98 182.24-26.55 181.29-26.55L181.29-26.55 167.49-26.55 167.49-22.7 177.24-22.7Q178.19-22.7 178.61-22.28 179.04-21.85 179.04-20.9L179.04-20.9 179.04-15.55Q179.04-14.6 178.61-14.18 178.19-13.75 177.24-13.75L177.24-13.75 167.49-13.75 167.49-9.45 181.29-9.45Q182.24-9.45 182.66-9.03 183.09-8.6 183.09-7.65L183.09-7.65 183.09-1.8Q183.09-0.85 182.66-0.43 182.24 0 181.29 0ZM205.69 0L205.69 0 189.89 0Q188.94 0 188.51-0.43 188.09-0.85 188.09-1.8L188.09-1.8 188.09-7.65Q188.09-8.6 188.51-9.03 188.94-9.45 189.89-9.45L189.89-9.45 203.34-9.45Q203.99-9.45 204.31-9.88 204.64-10.3 204.64-10.9L204.64-10.9Q204.64-11.75 204.31-12.15 203.99-12.55 203.34-12.6L203.34-12.6 195.84-13.65Q192.34-14.15 190.21-15.95 188.09-17.75 188.09-21.95L188.09-21.95 188.09-27.2Q188.09-31.45 190.84-33.73 193.59-36 198.44-36L198.44-36 212.44-36Q213.39-36 213.81-35.58 214.24-35.15 214.24-34.2L214.24-34.2 214.24-28.25Q214.24-27.3 213.81-26.88 213.39-26.45 212.44-26.45L212.44-26.45 200.79-26.45Q200.14-26.45 199.79-26.03 199.44-25.6 199.44-24.95L199.44-24.95Q199.44-24.3 199.79-23.85 200.14-23.4 200.79-23.35L200.79-23.35 208.24-22.35Q211.74-21.85 213.89-20.05 216.04-18.25 216.04-14.05L216.04-14.05 216.04-8.8Q216.04-4.55 213.26-2.27 210.49 0 205.69 0ZM237.98 0L237.98 0 229.88 0Q228.93 0 228.51-0.43 228.08-0.85 228.08-1.8L228.08-1.8 228.08-26.35 220.73-26.35Q219.78-26.35 219.36-26.78 218.93-27.2 218.93-28.15L218.93-28.15 218.93-34.2Q218.93-35.15 219.36-35.58 219.78-36 220.73-36L220.73-36 247.13-36Q248.08-36 248.51-35.58 248.93-35.15 248.93-34.2L248.93-34.2 248.93-28.15Q248.93-27.2 248.51-26.78 248.08-26.35 247.13-26.35L247.13-26.35 239.78-26.35 239.78-1.8Q239.78-0.85 239.36-0.43 238.93 0 237.98 0ZM274.08 0L274.08 0 266.33 0Q265.38 0 264.95-0.43 264.53-0.85 264.53-1.8L264.53-1.8 264.53-34.2Q264.53-35.15 264.95-35.58 265.38-36 266.33-36L266.33-36 281.63-36Q288.43-36 290.93-33.3 293.43-30.6 293.43-26.25L293.43-26.25 293.43-19.85Q293.43-15.5 290.93-12.8 288.43-10.1 281.63-10.1L281.63-10.1 275.88-10.1 275.88-1.8Q275.88-0.85 275.45-0.43 275.03 0 274.08 0ZM280.28-26.65L275.78-26.65 275.78-19.1 280.28-19.1Q281.73-19.1 282.18-19.85 282.63-20.6 282.63-21.55L282.63-21.55 282.63-24.2Q282.63-25.15 282.18-25.9 281.73-26.65 280.28-26.65L280.28-26.65ZM313.68-27L309.93-27 309.93-20.6 313.68-20.6Q314.98-20.6 315.43-21.28 315.88-21.95 315.88-22.95L315.88-22.95 315.88-24.65Q315.88-25.65 315.43-26.33 314.98-27 313.68-27L313.68-27ZM308.13 0L308.13 0 300.43 0Q299.48 0 299.05-0.43 298.63-0.85 298.63-1.8L298.63-1.8 298.63-34.2Q298.63-35.15 299.05-35.58 299.48-36 300.43-36L300.43-36 317.08-36Q322.68-36 324.8-33.68 326.93-31.35 326.93-27.65L326.93-27.65 326.93-25.35Q326.93-23.25 326.3-21.78 325.68-20.3 324.13-19.65L324.13-19.65Q326.83-19.35 328.5-17.45 330.18-15.55 330.18-12.4L330.18-12.4 330.18-1.8Q330.18-0.85 329.75-0.43 329.33 0 328.38 0L328.38 0 320.63 0Q319.68 0 319.25-0.43 318.83-0.85 318.83-1.8L318.83-1.8 318.83-9.45Q318.83-10.55 318.4-11.08 317.98-11.6 316.93-11.6L316.93-11.6 309.93-11.6 309.93-1.8Q309.93-0.85 309.5-0.43 309.08 0 308.13 0ZM348.82-25.5L348.82-25.5 346.47-17.9 354.32-17.9 351.97-25.5Q351.77-25.95 351.55-26.15 351.32-26.35 351.02-26.35L351.02-26.35 349.77-26.35Q349.47-26.35 349.25-26.15 349.02-25.95 348.82-25.5ZM345.97-8.8L345.97-1.8Q345.97-0.85 345.55-0.43 345.12 0 344.17 0L344.17 0 336.82 0Q335.87 0 335.45-0.43 335.02-0.85 335.02-1.8L335.02-1.8 335.02-15Q335.02-16.5 335.5-18.45 335.97-20.4 336.97-23L336.97-23 341.32-34.35Q341.62-35.2 342.25-35.6 342.87-36 343.87-36L343.87-36 357.32-36Q358.27-36 358.9-35.6 359.52-35.2 359.82-34.35L359.82-34.35 364.17-23Q365.17-20.4 365.65-18.45 366.12-16.5 366.12-15L366.12-15 366.12-1.8Q366.12-0.85 365.7-0.43 365.27 0 364.32 0L364.32 0 356.77 0Q355.77 0 355.3-0.43 354.82-0.85 354.82-1.8L354.82-1.8 354.82-8.8 345.97-8.8ZM396.22 0L396.22 0 384.02 0Q377.77 0 374.75-2.5 371.72-5 371.72-10.2L371.72-10.2 371.72-25.75Q371.72-30.95 374.75-33.48 377.77-36 384.02-36L384.02-36 396.22-36Q397.17-36 397.6-35.58 398.02-35.15 398.02-34.2L398.02-34.2 398.02-28.15Q398.02-27.2 397.6-26.78 397.17-26.35 396.22-26.35L396.22-26.35 386.17-26.35Q384.62-26.35 383.87-25.73 383.12-25.1 383.12-23.85L383.12-23.85 383.12-11.95Q383.12-10.7 383.87-10.13 384.62-9.55 386.17-9.55L386.17-9.55 396.22-9.55Q397.17-9.55 397.6-9.13 398.02-8.7 398.02-7.75L398.02-7.75 398.02-1.8Q398.02-0.85 397.6-0.43 397.17 0 396.22 0ZM420.67 0L420.67 0 412.57 0Q411.62 0 411.19-0.43 410.77-0.85 410.77-1.8L410.77-1.8 410.77-26.35 403.42-26.35Q402.47-26.35 402.04-26.78 401.62-27.2 401.62-28.15L401.62-28.15 401.62-34.2Q401.62-35.15 402.04-35.58 402.47-36 403.42-36L403.42-36 429.82-36Q430.77-36 431.19-35.58 431.62-35.15 431.62-34.2L431.62-34.2 431.62-28.15Q431.62-27.2 431.19-26.78 430.77-26.35 429.82-26.35L429.82-26.35 422.47-26.35 422.47-1.8Q422.47-0.85 422.04-0.43 421.62 0 420.67 0ZM458.77 0L437.47 0Q436.52 0 436.09-0.43 435.67-0.85 435.67-1.8L435.67-1.8 435.67-7.75Q435.67-8.7 436.09-9.13 436.52-9.55 437.47-9.55L437.47-9.55 442.42-9.55 442.42-26.35 437.47-26.35Q436.52-26.35 436.09-26.78 435.67-27.2 435.67-28.15L435.67-28.15 435.67-34.2Q435.67-35.15 436.09-35.58 436.52-36 437.47-36L437.47-36 458.77-36Q459.72-36 460.14-35.58 460.57-35.15 460.57-34.2L460.57-34.2 460.57-28.15Q460.57-27.2 460.14-26.78 459.72-26.35 458.77-26.35L458.77-26.35 453.92-26.35 453.92-9.55 458.77-9.55Q459.72-9.55 460.14-9.13 460.57-8.7 460.57-7.75L460.57-7.75 460.57-1.8Q460.57-0.85 460.14-0.43 459.72 0 458.77 0L458.77 0ZM490.66 0L490.66 0 478.46 0Q472.21 0 469.19-2.5 466.16-5 466.16-10.2L466.16-10.2 466.16-25.75Q466.16-30.95 469.19-33.48 472.21-36 478.46-36L478.46-36 490.66-36Q491.61-36 492.04-35.58 492.46-35.15 492.46-34.2L492.46-34.2 492.46-28.15Q492.46-27.2 492.04-26.78 491.61-26.35 490.66-26.35L490.66-26.35 480.61-26.35Q479.06-26.35 478.31-25.73 477.56-25.1 477.56-23.85L477.56-23.85 477.56-11.95Q477.56-10.7 478.31-10.13 479.06-9.55 480.61-9.55L480.61-9.55 490.66-9.55Q491.61-9.55 492.04-9.13 492.46-8.7 492.46-7.75L492.46-7.75 492.46-1.8Q492.46-0.85 492.04-0.43 491.61 0 490.66 0ZM523.11 0L523.11 0 499.91 0Q498.96 0 498.54-0.43 498.11-0.85 498.11-1.8L498.11-1.8 498.11-34.2Q498.11-35.15 498.54-35.58 498.96-36 499.91-36L499.91-36 523.11-36Q524.06-36 524.49-35.58 524.91-35.15 524.91-34.2L524.91-34.2 524.91-28.35Q524.91-27.4 524.49-26.98 524.06-26.55 523.11-26.55L523.11-26.55 509.31-26.55 509.31-22.7 519.06-22.7Q520.01-22.7 520.44-22.28 520.86-21.85 520.86-20.9L520.86-20.9 520.86-15.55Q520.86-14.6 520.44-14.18 520.01-13.75 519.06-13.75L519.06-13.75 509.31-13.75 509.31-9.45 523.11-9.45Q524.06-9.45 524.49-9.03 524.91-8.6 524.91-7.65L524.91-7.65 524.91-1.8Q524.91-0.85 524.49-0.43 524.06 0 523.11 0ZM547.51 0L547.51 0 531.71 0Q530.76 0 530.33-0.43 529.91-0.85 529.91-1.8L529.91-1.8 529.91-7.65Q529.91-8.6 530.33-9.03 530.76-9.45 531.71-9.45L531.71-9.45 545.16-9.45Q545.81-9.45 546.13-9.88 546.46-10.3 546.46-10.9L546.46-10.9Q546.46-11.75 546.13-12.15 545.81-12.55 545.16-12.6L545.16-12.6 537.66-13.65Q534.16-14.15 532.03-15.95 529.91-17.75 529.91-21.95L529.91-21.95 529.91-27.2Q529.91-31.45 532.66-33.73 535.41-36 540.26-36L540.26-36 554.26-36Q555.21-36 555.63-35.58 556.06-35.15 556.06-34.2L556.06-34.2 556.06-28.25Q556.06-27.3 555.63-26.88 555.21-26.45 554.26-26.45L554.26-26.45 542.61-26.45Q541.96-26.45 541.61-26.03 541.26-25.6 541.26-24.95L541.26-24.95Q541.26-24.3 541.61-23.85 541.96-23.4 542.61-23.35L542.61-23.35 550.06-22.35Q553.56-21.85 555.71-20.05 557.86-18.25 557.86-14.05L557.86-14.05 557.86-8.8Q557.86-4.55 555.08-2.27 552.31 0 547.51 0ZM587.35-25.5L587.35-25.5 585-17.9 592.85-17.9 590.5-25.5Q590.3-25.95 590.08-26.15 589.85-26.35 589.55-26.35L589.55-26.35 588.3-26.35Q588-26.35 587.78-26.15 587.55-25.95 587.35-25.5ZM584.5-8.8L584.5-1.8Q584.5-0.85 584.08-0.43 583.65 0 582.7 0L582.7 0 575.35 0Q574.4 0 573.98-0.43 573.55-0.85 573.55-1.8L573.55-1.8 573.55-15Q573.55-16.5 574.03-18.45 574.5-20.4 575.5-23L575.5-23 579.85-34.35Q580.15-35.2 580.78-35.6 581.4-36 582.4-36L582.4-36 595.85-36Q596.8-36 597.43-35.6 598.05-35.2 598.35-34.35L598.35-34.35 602.7-23Q603.7-20.4 604.18-18.45 604.65-16.5 604.65-15L604.65-15 604.65-1.8Q604.65-0.85 604.23-0.43 603.8 0 602.85 0L602.85 0 595.3 0Q594.3 0 593.83-0.43 593.35-0.85 593.35-1.8L593.35-1.8 593.35-8.8 584.5-8.8ZM629.45 0L629.45 0 612.6 0Q611.65 0 611.22-0.43 610.8-0.85 610.8-1.8L610.8-1.8 610.8-34.2Q610.8-35.15 611.22-35.58 611.65-36 612.6-36L612.6-36 629.45-36Q635.7-36 638.72-33.5 641.75-31 641.75-25.8L641.75-25.8 641.75-10.2Q641.75-5 638.72-2.5 635.7 0 629.45 0ZM628.1-26.45L622.15-26.45 622.15-9.45 628.1-9.45Q629.3-9.45 629.87-10.05 630.45-10.65 630.45-11.9L630.45-11.9 630.45-24.05Q630.45-25.3 629.87-25.88 629.3-26.45 628.1-26.45L628.1-26.45ZM669.4 0L669.4 0 656.4 0Q655.45 0 654.82-0.35 654.2-0.7 653.85-1.65L653.85-1.65 648.95-13.9Q648.5-15 648.2-15.83 647.9-16.65 647.7-17.4 647.5-18.15 647.42-18.98 647.35-19.8 647.35-21L647.35-21 647.35-34.2Q647.35-35.15 647.77-35.58 648.2-36 649.15-36L649.15-36 657.1-36Q658.05-36 658.55-35.58 659.05-35.15 659.05-34.2L659.05-34.2 659.05-20.4Q659.05-19.9 659.15-19.4 659.25-18.9 659.45-18.35L659.45-18.35 661.8-11.35Q661.95-10.85 662.15-10.68 662.35-10.5 662.75-10.5L662.75-10.5 663.3-10.5Q663.7-10.5 663.9-10.68 664.1-10.85 664.25-11.35L664.25-11.35 666.6-18.4Q666.8-18.95 666.9-19.45 667-19.95 667-20.45L667-20.45 667-34.2Q667-35.15 667.42-35.58 667.85-36 668.8-36L668.8-36 676.65-36Q677.6-36 678.02-35.58 678.45-35.15 678.45-34.2L678.45-34.2 678.45-21Q678.45-19.8 678.37-18.98 678.3-18.15 678.1-17.4 677.9-16.65 677.6-15.83 677.3-15 676.85-13.9L676.85-13.9 671.95-1.65Q671.6-0.7 670.97-0.35 670.35 0 669.4 0ZM706.89 0L685.59 0Q684.64 0 684.22-0.43 683.79-0.85 683.79-1.8L683.79-1.8 683.79-7.75Q683.79-8.7 684.22-9.13 684.64-9.55 685.59-9.55L685.59-9.55 690.54-9.55 690.54-26.35 685.59-26.35Q684.64-26.35 684.22-26.78 683.79-27.2 683.79-28.15L683.79-28.15 683.79-34.2Q683.79-35.15 684.22-35.58 684.64-36 685.59-36L685.59-36 706.89-36Q707.84-36 708.27-35.58 708.69-35.15 708.69-34.2L708.69-34.2 708.69-28.15Q708.69-27.2 708.27-26.78 707.84-26.35 706.89-26.35L706.89-26.35 702.04-26.35 702.04-9.55 706.89-9.55Q707.84-9.55 708.27-9.13 708.69-8.7 708.69-7.75L708.69-7.75 708.69-1.8Q708.69-0.85 708.27-0.43 707.84 0 706.89 0L706.89 0ZM731.54 0L731.54 0 715.74 0Q714.79 0 714.37-0.43 713.94-0.85 713.94-1.8L713.94-1.8 713.94-7.65Q713.94-8.6 714.37-9.03 714.79-9.45 715.74-9.45L715.74-9.45 729.19-9.45Q729.84-9.45 730.17-9.88 730.49-10.3 730.49-10.9L730.49-10.9Q730.49-11.75 730.17-12.15 729.84-12.55 729.19-12.6L729.19-12.6 721.69-13.65Q718.19-14.15 716.07-15.95 713.94-17.75 713.94-21.95L713.94-21.95 713.94-27.2Q713.94-31.45 716.69-33.73 719.44-36 724.29-36L724.29-36 738.29-36Q739.24-36 739.67-35.58 740.09-35.15 740.09-34.2L740.09-34.2 740.09-28.25Q740.09-27.3 739.67-26.88 739.24-26.45 738.29-26.45L738.29-26.45 726.64-26.45Q725.99-26.45 725.64-26.03 725.29-25.6 725.29-24.95L725.29-24.95Q725.29-24.3 725.64-23.85 725.99-23.4 726.64-23.35L726.64-23.35 734.09-22.35Q737.59-21.85 739.74-20.05 741.89-18.25 741.89-14.05L741.89-14.05 741.89-8.8Q741.89-4.55 739.12-2.27 736.34 0 731.54 0ZM777.84-26.5L777.84-9.45Q777.84-7.15 777.16-5.28 776.49-3.4 774.76-2.08 773.04-0.75 770.01 0 766.99 0.75 762.34 0.75L762.34 0.75Q757.69 0.75 754.64 0 751.59-0.75 749.86-2.08 748.14-3.4 747.46-5.28 746.79-7.15 746.79-9.45L746.79-9.45 746.79-26.5Q746.79-28.8 747.46-30.68 748.14-32.55 749.86-33.9 751.59-35.25 754.64-36 757.69-36.75 762.34-36.75L762.34-36.75Q766.99-36.75 770.01-36 773.04-35.25 774.76-33.9 776.49-32.55 777.16-30.68 777.84-28.8 777.84-26.5L777.84-26.5ZM758.14-24.7L758.14-11.25Q758.14-10.25 758.89-9.58 759.64-8.9 762.34-8.9L762.34-8.9Q765.04-8.9 765.79-9.58 766.54-10.25 766.54-11.25L766.54-11.25 766.54-24.7Q766.54-25.65 765.79-26.33 765.04-27 762.34-27L762.34-27Q759.64-27 758.89-26.33 758.14-25.65 758.14-24.7L758.14-24.7ZM799.24-27L795.49-27 795.49-20.6 799.24-20.6Q800.54-20.6 800.99-21.28 801.44-21.95 801.44-22.95L801.44-22.95 801.44-24.65Q801.44-25.65 800.99-26.33 800.54-27 799.24-27L799.24-27ZM793.69 0L793.69 0 785.99 0Q785.04 0 784.61-0.43 784.19-0.85 784.19-1.8L784.19-1.8 784.19-34.2Q784.19-35.15 784.61-35.58 785.04-36 785.99-36L785.99-36 802.64-36Q808.24-36 810.36-33.68 812.49-31.35 812.49-27.65L812.49-27.65 812.49-25.35Q812.49-23.25 811.86-21.78 811.24-20.3 809.69-19.65L809.69-19.65Q812.39-19.35 814.06-17.45 815.74-15.55 815.74-12.4L815.74-12.4 815.74-1.8Q815.74-0.85 815.31-0.43 814.89 0 813.94 0L813.94 0 806.19 0Q805.24 0 804.81-0.43 804.39-0.85 804.39-1.8L804.39-1.8 804.39-9.45Q804.39-10.55 803.96-11.08 803.54-11.6 802.49-11.6L802.49-11.6 795.49-11.6 795.49-1.8Q795.49-0.85 795.06-0.43 794.64 0 793.69 0Z" opacity="1" transform="matrix(1,0,0,1,0,0)" fill="#ffffff" class="slogan-text-1" data-fill-palette-color="quaternary" id="text-1"></path></svg></g></svg></g></svg></g></svg></g><g><svg viewBox="0 0 42.60136317443753 58.312174304524696" height="58.312174304524696" width="42.60136317443753"><g><svg xmlns="http://www.w3.org/2000/svg" viewBox="12.409090848504258 4.933164639037914 39.54029248627865 54.12222181883763" x="0" y="0" height="58.312174304524696" width="42.60136317443753" class="icon-icon-0" data-fill-palette-color="quaternary" id="icon-0"><g fill="#ffffff" data-fill-palette-color="quaternary"><path d="M50.91 22.63A18.58 18.58 0 0 0 13.81 22.31L12.46 37.87A19.77 19.77 0 1 0 51.92 38.21ZM38.5 16A1.5 1.5 0 1 1 37 17.5 1.5 1.5 0 0 1 38.5 16M25.5 16A1.5 1.5 0 1 1 24 17.5 1.5 1.5 0 0 1 25.5 16M42.39 37.85A6 6 0 0 1 41.84 38.13L41.08 53.46A1.62 1.62 0 0 1 37.85 53.54L36.38 38.85 36.05 38.78A9 9 0 0 1 32.05 36.71 9.1 9.1 0 0 1 27.98 38.79L27.67 38.85 26.15 53.54A1.62 1.62 0 0 1 22.92 53.46L22.16 38.13A6 6 0 0 1 21.61 37.85 9 9 0 0 1 28.61 21.39 2.4 2.4 0 0 1 30.37 20.62H33.59A2.37 2.37 0 0 1 35.34 21.4 8.7 8.7 0 0 1 38 21 9 9 0 0 1 42.39 37.85" fill="#ffffff" data-fill-palette-color="quaternary"></path><path d="M38 23A7.3 7.3 0 0 0 36 23.29 2 2 0 0 1 36 23.57 1.3 1.3 0 0 1 35.91 23.85 1.6 1.6 0 0 1 35.79 24.12 2 2 0 0 1 35.64 24.37 1.7 1.7 0 0 1 35.43 24.63 1 1 0 0 1 35.25 24.8 2.1 2.1 0 0 1 34.76 25.14L32.52 26.26A1 1 0 0 1 31.62 26.26L29.39 25.14A2.5 2.5 0 0 1 28.5 24.37 2 2 0 0 1 28.35 24.12 1.6 1.6 0 0 1 28.23 23.85 1.3 1.3 0 0 1 28.14 23.57 2 2 0 0 1 28.09 23.29 7.3 7.3 0 0 0 26 23 7 7 0 1 0 26 37 6.4 6.4 0 0 0 27.49 36.84 7 7 0 0 0 31.25 34.63 1 1 0 0 1 32.75 34.63 6.94 6.94 0 0 0 36.49 36.83 7.07 7.07 0 0 0 41.41 36.11 7 7 0 0 0 38 23" fill="#ffffff" data-fill-palette-color="quaternary"></path><path d="M30 23V22.88Z" fill="#ffffff" data-fill-palette-color="quaternary"></path><path d="M34 23A0.3 0.3 0 0 0 34 22.9 1 1 0 0 0 34 23" fill="#ffffff" data-fill-palette-color="quaternary"></path></g></svg></g></svg></g></svg></g></svg></g></svg></g></svg></g><defs></defs></svg><rect width="342.85155851775386" height="342.85155851775386" fill="none" stroke="none" visibility="hidden"></rect></g></svg></g></svg>