<svg xmlns="http://www.w3.org/2000/svg" version="1.1" xmlns:xlink="http://www.w3.org/1999/xlink" xmlns:svgjs="http://svgjs.dev/svgjs" width="2000" height="1999" viewBox="0 0 2000 1999"><g transform="matrix(1,0,0,1,-0.431486880466764,-0.4312711370263287)"><svg viewBox="0 0 343 343" data-background-color="#ffffff" preserveAspectRatio="xMidYMid meet" height="1999" width="2000" xmlns="http://www.w3.org/2000/svg" xmlns:xlink="http://www.w3.org/1999/xlink"><g id="tight-bounds" transform="matrix(1,0,0,1,0.0740000000000407,0.07400000000001228)"><svg viewBox="0 0 342.85155851775386 342.85155851775386" height="342.85155851775386" width="342.85155851775386"><g><svg></svg></g><g><svg viewBox="0 0 342.85155851775386 342.85155851775386" height="342.85155851775386" width="342.85155851775386"><g><path d="M0 171.426c0-94.676 76.75-171.426 171.426-171.426 94.676 0 171.426 76.75 171.426 171.426 0 94.676-76.75 171.426-171.426 171.426-94.676 0-171.426-76.75-171.426-171.426zM171.426 340.976c93.64 0 169.551-75.91 169.55-169.55 0-93.64-75.91-169.551-169.55-169.551-93.64 0-169.551 75.91-169.551 169.551 0 93.64 75.91 169.551 169.551 169.55z" data-fill-palette-color="tertiary" fill="#2d4f8f" stroke="transparent"></path><ellipse rx="164.56874808852186" ry="164.56874808852186" cx="171.42577925887693" cy="171.42577925887693" fill="#2d4f8f" stroke="transparent" stroke-width="0" fill-opacity="1" data-fill-palette-color="tertiary"></ellipse></g><g transform="matrix(1,0,0,1,64.84655864529837,144.78706147267695)"><svg viewBox="0 0 213.1584412271571 53.27743557239996" height="53.27743557239996" width="213.1584412271571"><g><svg viewBox="0 0 213.1584412271571 53.27743557239996" height="53.27743557239996" width="213.1584412271571"><g><svg viewBox="0 0 268.3364141623771 67.06877726709273" height="53.27743557239996" width="213.1584412271571"><g transform="matrix(1,0,0,1,55.177972935219984,9.269273848056958)"><svg viewBox="0 0 213.1584412271571 48.53022957097881" height="48.53022957097881" width="213.1584412271571"><g id="textblocktransform"><svg viewBox="0 0 213.1584412271571 48.53022957097881" height="48.53022957097881" width="213.1584412271571" id="textblock"><g><svg viewBox="0 0 213.1584412271571 26.174886882187575" height="26.174886882187575" width="213.1584412271571"><g transform="matrix(1,0,0,1,0,0)"><svg width="213.1584412271571" viewBox="3.8 -36.75 303.32 37.25" height="26.174886882187575" data-palette-color="#ffffff"><path d="M15.6-13.35L24.3 0 17.95 0 13.3-7.5 12-10.05 9-6.8 9 0 3.8 0 3.8-36.75 8.95-36.75 8.95-16.6 8.85-12.7 17.6-22.95 24.25-22.95 15.6-13.35ZM36.55 0.5Q31.8 0.5 30.02-2.3 28.25-5.1 28.25-10.1L28.25-10.1 28.25-22.95 33.65-22.95 33.65-11.45Q33.65-8.6 33.97-7.03 34.3-5.45 35.27-4.7 36.25-3.95 38.2-3.95L38.2-3.95Q39.6-3.95 40.9-4.75 42.2-5.55 43.02-6.93 43.85-8.3 43.85-9.95L43.85-9.95 43.85-22.95 49.2-22.95 49.2 0 44.8 0 44.2-3.35Q42.95-1.4 41.07-0.45 39.2 0.5 36.55 0.5L36.55 0.5ZM70 0.5Q67.19 0.5 64.97-0.88 62.74-2.25 61.89-4.05L61.89-4.05 61.8 0 56.59 0 56.59-36.75 61.89-36.75 61.89-22.6 61.64-18.7Q62.49-20.7 64.97-22.13 67.44-23.55 70.34-23.55L70.34-23.55Q73.75-23.55 76.27-22.03 78.8-20.5 80.14-17.78 81.5-15.05 81.5-11.45L81.5-11.45Q81.5-7.8 79.92-5.1 78.34-2.4 75.72-0.95 73.09 0.5 70 0.5L70 0.5ZM69.09-4Q72.34-4 74.09-6.08 75.84-8.15 75.84-11.45L75.84-11.45Q75.84-14.8 74.12-16.88 72.39-18.95 69.09-18.95L69.09-18.95Q66.25-18.95 64.3-16.98 62.34-15 62.34-11.8L62.34-11.8 62.34-11.45Q62.34-9.3 63.27-7.6 64.19-5.9 65.72-4.95 67.25-4 69.09-4L69.09-4ZM98.09 0.5Q93.99 0.5 91.24-1.13 88.49-2.75 87.19-5.48 85.89-8.2 85.89-11.45L85.89-11.45Q85.89-15.1 87.42-17.85 88.94-20.6 91.64-22.08 94.34-23.55 97.74-23.55L97.74-23.55Q103.04-23.55 105.62-20.63 108.19-17.7 108.19-12.4L108.19-12.4Q108.19-11.05 108.04-9.6L108.04-9.6 91.54-9.6Q92.09-6.55 93.72-5.2 95.34-3.85 98.24-3.85L98.24-3.85Q100.64-3.85 102.19-4.25 103.74-4.65 105.04-5.35L105.04-5.35 106.69-1.5Q105.44-0.7 103.29-0.1 101.14 0.5 98.09 0.5L98.09 0.5ZM91.54-13.35L102.94-13.35Q102.99-16.45 101.59-17.73 100.19-19 97.59-19L97.59-19Q92.34-19 91.54-13.35L91.54-13.35ZM115.79-10.15L115.79-14.95 132.94-14.95 132.94-10.15 115.79-10.15ZM152.14 0.5Q149.04 0.5 146.41-0.98 143.79-2.45 142.21-5.18 140.64-7.9 140.64-11.55L140.64-11.55Q140.64-15.15 142.01-17.85 143.39-20.55 145.94-22.05 148.49-23.55 151.94-23.55L151.94-23.55Q153.94-23.55 155.69-22.85 157.44-22.15 158.64-21.13 159.84-20.1 160.24-19.1L160.24-19.1 160.34-22.95 165.49-22.95 165.49 0 160.39 0 160.29-4.05Q159.44-2.25 157.19-0.88 154.94 0.5 152.14 0.5L152.14 0.5ZM153.04-4Q155.89-4 157.84-5.98 159.79-7.95 159.79-11.15L159.79-11.15 159.79-11.5Q159.79-13.65 158.89-15.35 157.99-17.05 156.44-18 154.89-18.95 153.04-18.95L153.04-18.95Q149.84-18.95 148.09-16.88 146.34-14.8 146.34-11.5L146.34-11.5Q146.34-8.15 148.06-6.08 149.79-4 153.04-4L153.04-4ZM182.88 0.5Q179.78 0.5 177.16-0.98 174.53-2.45 172.96-5.18 171.38-7.9 171.38-11.55L171.38-11.55Q171.38-17 174.44-20.28 177.49-23.55 182.69-23.55L182.69-23.55Q185.59-23.55 187.99-22.13 190.38-20.7 191.24-18.7L191.24-18.7 190.99-22.6 190.99-36.75 196.28-36.75 196.28 0 191.13 0 191.03-4.05Q190.19-2.25 187.94-0.88 185.69 0.5 182.88 0.5L182.88 0.5ZM183.78-4.05Q186.63-4.05 188.59-6.03 190.53-8 190.53-11.2L190.53-11.2 190.53-11.55Q190.53-13.7 189.63-15.4 188.74-17.1 187.19-18.05 185.63-19 183.78-19L183.78-19Q180.59-19 178.84-16.93 177.09-14.85 177.09-11.55L177.09-11.55Q177.09-8.2 178.81-6.13 180.53-4.05 183.78-4.05L183.78-4.05ZM211.88 0L199.78-22.95 205.93-22.95 210.88-12.6 212.48-8.45 214.08-12.6 218.98-22.95 224.98-22.95 212.93 0 211.88 0ZM228.83 0L228.83-22.95 234.43-22.95 234.43 0 228.83 0ZM231.58-27.25Q230.03-27.25 228.98-28.3 227.93-29.35 227.93-30.9L227.93-30.9Q227.93-32.3 228.98-33.3 230.03-34.3 231.58-34.3L231.58-34.3Q233.08-34.3 234.13-33.3 235.18-32.3 235.18-30.9L235.18-30.9Q235.18-29.35 234.16-28.3 233.13-27.25 231.58-27.25L231.58-27.25ZM249.83 0.5Q247.43 0.5 244.85-0.13 242.28-0.75 241.18-1.6L241.18-1.6 242.98-5.85Q245.98-3.75 249.83-3.75L249.83-3.75Q253.68-3.75 253.68-6L253.68-6Q253.68-7 252.88-7.55 252.08-8.1 250.03-8.85L250.03-8.85 248.13-9.55Q245.13-10.75 243.38-12.43 241.63-14.1 241.63-16.85L241.63-16.85Q241.63-20 244.1-21.78 246.58-23.55 250.73-23.55L250.73-23.55Q252.78-23.55 254.75-23.1 256.73-22.65 257.78-21.95L257.78-21.95 255.83-17.65Q255.18-18.3 253.75-18.78 252.33-19.25 250.58-19.25L250.58-19.25Q247.03-19.25 247.03-17.1L247.03-17.1Q247.03-15.9 247.98-15.28 248.93-14.65 251.08-13.9L251.08-13.9Q251.28-13.85 252.63-13.35L252.63-13.35Q255.83-12.1 257.38-10.5 258.93-8.9 258.93-6.4L258.93-6.4Q258.93-3 256.35-1.25 253.78 0.5 249.83 0.5L249.83 0.5ZM275.23 0.5Q271.68 0.5 268.93-1.1 266.18-2.7 264.68-5.45 263.18-8.2 263.18-11.55L263.18-11.55Q263.18-14.85 264.65-17.6 266.13-20.35 268.88-21.95 271.63-23.55 275.23-23.55L275.23-23.55Q278.83-23.55 281.55-21.95 284.28-20.35 285.75-17.6 287.23-14.85 287.23-11.55L287.23-11.55Q287.23-8.2 285.73-5.45 284.23-2.7 281.5-1.1 278.78 0.5 275.23 0.5L275.23 0.5ZM275.38-3.9Q278.28-3.9 279.95-6.05 281.63-8.2 281.63-11.45L281.63-11.45Q281.63-14.7 279.83-16.93 278.03-19.15 275.08-19.15L275.08-19.15Q272.23-19.15 270.5-16.95 268.78-14.75 268.78-11.45L268.78-11.45Q268.78-8.25 270.63-6.08 272.48-3.9 275.38-3.9L275.38-3.9ZM292.82 0L292.82-22.95 298.22-22.95 298.22-18.45Q299.02-20.75 300.82-22.15 302.62-23.55 304.92-23.55L304.92-23.55Q306.52-23.55 307.12-23.25L307.12-23.25 306.37-17.8Q305.92-18.1 304.42-18.1L304.42-18.1Q302.07-18.1 300.15-16.6 298.22-15.1 298.22-11.8L298.22-11.8 298.22 0 292.82 0Z" opacity="1" transform="matrix(1,0,0,1,0,0)" fill="#ffffff" class="wordmark-text-0" data-fill-palette-color="quaternary" id="text-0"></path></svg></g></svg></g><g transform="matrix(1,0,0,1,0,32.35414947778689)"><svg viewBox="0 0 213.1584412271571 16.17608009319192" height="16.17608009319192" width="213.1584412271571"><g transform="matrix(1,0,0,1,0,0)"><svg width="213.1584412271571" viewBox="4.25 -35.7 607.48 46.10000000000001" height="16.17608009319192" data-palette-color="#ffffff"><path d="M7.8 0L4.25 0 4.25-35.7 7.8-35.7 7.8-11 7.95-11 18.7-24.25 22.75-24.25 14.65-14.55 23.85 0 19.9 0 12.55-12 7.8-6.4 7.8 0ZM39.98 0.6L39.98 0.6Q37.03 0.6 34.68-0.53 32.33-1.65 30.98-3.65 29.63-5.65 29.63-8.15L29.63-8.15Q29.63-10.25 30.53-11.93 31.43-13.6 32.83-14.83 34.23-16.05 35.73-16.85L35.73-16.85 35.73-17.05Q33.98-18.3 32.61-20.1 31.23-21.9 31.23-24.4L31.23-24.4Q31.23-26.85 32.41-28.68 33.58-30.5 35.58-31.5 37.58-32.5 40.08-32.5L40.08-32.5Q44.28-32.5 46.66-30.13 49.03-27.75 49.03-24.05L49.03-24.05Q49.03-22.35 48.31-20.85 47.58-19.35 46.56-18.18 45.53-17 44.58-16.25L44.58-16.25 44.58-16.05Q45.98-15.2 47.26-14.13 48.53-13.05 49.33-11.53 50.13-10 50.13-7.9L50.13-7.9Q50.13-5.5 48.88-3.6 47.63-1.7 45.33-0.55 43.03 0.6 39.98 0.6ZM40.08-2.15L40.08-2.15Q42.03-2.15 43.51-2.9 44.98-3.65 45.81-4.98 46.63-6.3 46.63-7.95L46.63-7.95Q46.63-10.15 45.38-11.53 44.13-12.9 42.08-13.83 40.03-14.75 37.68-15.7L37.68-15.7Q35.68-14.4 34.31-12.6 32.93-10.8 32.93-8.45L32.93-8.45Q32.93-6.65 33.86-5.23 34.78-3.8 36.41-2.98 38.03-2.15 40.08-2.15ZM42.23-17.2L42.23-17.2Q43.98-18.75 44.91-20.4 45.83-22.05 45.83-23.9L45.83-23.9Q45.83-25.5 45.16-26.85 44.48-28.2 43.18-28.98 41.88-29.75 40.03-29.75L40.03-29.75Q37.68-29.75 36.16-28.28 34.63-26.8 34.63-24.4L34.63-24.4Q34.63-22.45 35.71-21.13 36.78-19.8 38.53-18.9 40.28-18 42.23-17.2ZM65.86 0.6L65.86 0.6Q63.26 0.6 60.91-0.38 58.56-1.35 56.86-2.75L56.86-2.75 58.71-5.2Q60.26-3.95 61.99-3.1 63.71-2.25 66.01-2.25L66.01-2.25Q68.51-2.25 69.76-3.45 71.01-4.65 71.01-6.3L71.01-6.3Q71.01-7.6 70.16-8.47 69.31-9.35 68.04-9.98 66.76-10.6 65.36-11.1L65.36-11.1Q63.66-11.7 61.96-12.55 60.26-13.4 59.14-14.7 58.01-16 58.01-18.05L58.01-18.05Q58.01-20.9 60.19-22.88 62.36-24.85 66.26-24.85L66.26-24.85Q68.46-24.85 70.36-24.05 72.26-23.25 73.61-22.15L73.61-22.15 71.86-19.8Q70.61-20.7 69.29-21.33 67.96-21.95 66.26-21.95L66.26-21.95Q63.86-21.95 62.71-20.83 61.56-19.7 61.56-18.25L61.56-18.25Q61.56-17.05 62.34-16.28 63.11-15.5 64.36-14.95 65.61-14.4 67.01-13.85L67.01-13.85Q68.81-13.2 70.54-12.38 72.26-11.55 73.41-10.2 74.56-8.85 74.56-6.5L74.56-6.5Q74.56-4.6 73.56-2.98 72.56-1.35 70.61-0.38 68.66 0.6 65.86 0.6ZM107.32 0.6L107.32 0.6Q105.62 0.6 103.8-0.23 101.97-1.05 100.32-2.5L100.32-2.5 100.17-2.5 99.82 0 96.92 0 96.92-35.7 100.52-35.7 100.52-25.8 100.42-21.35Q102.12-22.85 104.12-23.85 106.12-24.85 108.17-24.85L108.17-24.85Q111.37-24.85 113.52-23.33 115.67-21.8 116.75-19.03 117.82-16.25 117.82-12.5L117.82-12.5Q117.82-8.35 116.35-5.43 114.87-2.5 112.47-0.95 110.07 0.6 107.32 0.6ZM106.72-2.5L106.72-2.5Q108.87-2.5 110.52-3.7 112.17-4.9 113.12-7.15 114.07-9.4 114.07-12.45L114.07-12.45Q114.07-15.2 113.4-17.3 112.72-19.4 111.25-20.58 109.77-21.75 107.37-21.75L107.37-21.75Q105.77-21.75 104.07-20.88 102.37-20 100.52-18.25L100.52-18.25 100.52-5.15Q102.22-3.7 103.87-3.1 105.52-2.5 106.72-2.5ZM137.31 0.6L137.31 0.6Q134.11 0.6 131.51-0.93 128.91-2.45 127.36-5.28 125.81-8.1 125.81-12.1L125.81-12.1Q125.81-16 127.36-18.88 128.91-21.75 131.38-23.3 133.86-24.85 136.66-24.85L136.66-24.85Q139.66-24.85 141.81-23.45 143.96-22.05 145.08-19.53 146.21-17 146.21-13.5L146.21-13.5Q146.21-12.95 146.16-12.35 146.11-11.75 146.01-11.3L146.01-11.3 128.66-11.3 128.61-13.95 142.96-13.95Q142.96-17.85 141.31-19.88 139.66-21.9 136.71-21.9L136.71-21.9Q134.91-21.9 133.21-20.88 131.51-19.85 130.41-17.68 129.31-15.5 129.31-12.1L129.31-12.1Q129.31-8.85 130.46-6.7 131.61-4.55 133.53-3.45 135.46-2.35 137.76-2.35L137.76-2.35Q139.56-2.35 141.06-2.9 142.56-3.45 143.91-4.3L143.91-4.3 145.26-1.9Q143.71-0.9 141.78-0.15 139.86 0.6 137.31 0.6ZM161.74 0.6L161.74 0.6Q159.14 0.6 156.79-0.38 154.44-1.35 152.74-2.75L152.74-2.75 154.59-5.2Q156.14-3.95 157.86-3.1 159.59-2.25 161.89-2.25L161.89-2.25Q164.39-2.25 165.64-3.45 166.89-4.65 166.89-6.3L166.89-6.3Q166.89-7.6 166.04-8.47 165.19-9.35 163.91-9.98 162.64-10.6 161.24-11.1L161.24-11.1Q159.54-11.7 157.84-12.55 156.14-13.4 155.01-14.7 153.89-16 153.89-18.05L153.89-18.05Q153.89-20.9 156.06-22.88 158.24-24.85 162.14-24.85L162.14-24.85Q164.34-24.85 166.24-24.05 168.14-23.25 169.49-22.15L169.49-22.15 167.74-19.8Q166.49-20.7 165.16-21.33 163.84-21.95 162.14-21.95L162.14-21.95Q159.74-21.95 158.59-20.83 157.44-19.7 157.44-18.25L157.44-18.25Q157.44-17.05 158.21-16.28 158.99-15.5 160.24-14.95 161.49-14.4 162.89-13.85L162.89-13.85Q164.69-13.2 166.41-12.38 168.14-11.55 169.29-10.2 170.44-8.85 170.44-6.5L170.44-6.5Q170.44-4.6 169.44-2.98 168.44-1.35 166.49-0.38 164.54 0.6 161.74 0.6ZM186.92 0.6L186.92 0.6Q183.12 0.6 181.67-1.6 180.22-3.8 180.22-7.3L180.22-7.3 180.22-21.25 176.57-21.25 176.57-24 180.37-24.25 180.82-31.1 183.87-31.1 183.87-24.25 190.52-24.25 190.52-21.25 183.87-21.25 183.87-7.2Q183.87-4.95 184.69-3.68 185.52-2.4 187.72-2.4L187.72-2.4Q188.37-2.4 189.14-2.6 189.92-2.8 190.52-3.05L190.52-3.05 191.27-0.3Q190.27 0.05 189.09 0.33 187.92 0.6 186.92 0.6ZM216.18 10.4L212.58 10.4 212.58-24.25 215.58-24.25 215.88-21.35 216.03-21.35Q217.68-22.75 219.7-23.8 221.73-24.85 223.88-24.85L223.88-24.85Q227.03-24.85 229.18-23.33 231.33-21.8 232.4-19 233.48-16.2 233.48-12.5L233.48-12.5Q233.48-8.35 232-5.43 230.53-2.5 228.13-0.95 225.73 0.6 222.98 0.6L222.98 0.6Q221.28 0.6 219.55-0.15 217.83-0.9 216.08-2.25L216.08-2.25 216.18 2.05 216.18 10.4ZM222.38-2.5L222.38-2.5Q224.53-2.5 226.18-3.7 227.83-4.9 228.78-7.15 229.73-9.4 229.73-12.45L229.73-12.45Q229.73-15.2 229.05-17.3 228.38-19.4 226.9-20.58 225.43-21.75 223.03-21.75L223.03-21.75Q221.43-21.75 219.75-20.88 218.08-20 216.18-18.25L216.18-18.25 216.18-5.15Q217.93-3.7 219.55-3.1 221.18-2.5 222.38-2.5ZM247.01 0L243.41 0 243.41-24.25 246.41-24.25 246.71-19.8 246.86-19.8Q248.11-22.1 249.89-23.48 251.66-24.85 253.76-24.85L253.76-24.85Q254.51-24.85 255.11-24.73 255.71-24.6 256.26-24.35L256.26-24.35 255.56-21.15Q254.96-21.35 254.49-21.45 254.01-21.55 253.26-21.55L253.26-21.55Q251.71-21.55 250.01-20.28 248.31-19 247.01-15.8L247.01-15.8 247.01 0ZM269.14 0.6L269.14 0.6Q267.14 0.6 265.54-0.2 263.94-1 262.99-2.53 262.04-4.05 262.04-6.2L262.04-6.2Q262.04-10.2 265.67-12.33 269.29-14.45 277.14-15.3L277.14-15.3Q277.14-16.9 276.72-18.43 276.29-19.95 275.17-20.88 274.04-21.8 271.94-21.8L271.94-21.8Q269.74-21.8 267.87-20.95 265.99-20.1 264.59-19.15L264.59-19.15 263.14-21.65Q264.19-22.35 265.64-23.1 267.09-23.85 268.84-24.35 270.59-24.85 272.54-24.85L272.54-24.85Q275.44-24.85 277.27-23.6 279.09-22.35 279.92-20.15 280.74-17.95 280.74-15L280.74-15 280.74 0 277.74 0 277.44-2.95 277.29-2.95Q275.54-1.5 273.49-0.45 271.44 0.6 269.14 0.6ZM270.09-2.35L270.09-2.35Q271.94-2.35 273.59-3.23 275.24-4.1 277.14-5.75L277.14-5.75 277.14-12.85Q272.84-12.35 270.34-11.48 267.84-10.6 266.74-9.35 265.64-8.1 265.64-6.45L265.64-6.45Q265.64-4.3 266.97-3.33 268.29-2.35 270.09-2.35ZM301.32 0.6L301.32 0.6Q298.12 0.6 295.57-0.9 293.02-2.4 291.52-5.23 290.02-8.05 290.02-12.1L290.02-12.1Q290.02-16.1 291.65-18.98 293.27-21.85 295.87-23.35 298.47-24.85 301.57-24.85L301.57-24.85Q303.97-24.85 305.67-23.98 307.37-23.1 308.62-21.95L308.62-21.95 306.72-19.55Q305.67-20.55 304.45-21.18 303.22-21.8 301.72-21.8L301.72-21.8Q299.42-21.8 297.65-20.58 295.87-19.35 294.85-17.15 293.82-14.95 293.82-12.1L293.82-12.1Q293.82-9.2 294.8-7.03 295.77-4.85 297.52-3.65 299.27-2.45 301.62-2.45L301.62-2.45Q303.37-2.45 304.87-3.18 306.37-3.9 307.52-4.95L307.52-4.95 309.12-2.5Q307.52-1.05 305.52-0.23 303.52 0.6 301.32 0.6ZM325.2 0.6L325.2 0.6Q321.4 0.6 319.95-1.6 318.5-3.8 318.5-7.3L318.5-7.3 318.5-21.25 314.85-21.25 314.85-24 318.65-24.25 319.1-31.1 322.15-31.1 322.15-24.25 328.8-24.25 328.8-21.25 322.15-21.25 322.15-7.2Q322.15-4.95 322.98-3.68 323.8-2.4 326-2.4L326-2.4Q326.65-2.4 327.43-2.6 328.2-2.8 328.8-3.05L328.8-3.05 329.55-0.3Q328.55 0.05 327.38 0.33 326.2 0.6 325.2 0.6ZM341.24 0L337.64 0 337.64-24.25 341.24-24.25 341.24 0ZM339.49-29.45L339.49-29.45Q338.44-29.45 337.71-30.15 336.99-30.85 336.99-32L336.99-32Q336.99-33.05 337.71-33.75 338.44-34.45 339.49-34.45L339.49-34.45Q340.59-34.45 341.29-33.75 341.99-33.05 341.99-32L341.99-32Q341.99-30.85 341.29-30.15 340.59-29.45 339.49-29.45ZM362.37 0.6L362.37 0.6Q359.17 0.6 356.62-0.9 354.07-2.4 352.57-5.23 351.07-8.05 351.07-12.1L351.07-12.1Q351.07-16.1 352.69-18.98 354.32-21.85 356.92-23.35 359.52-24.85 362.62-24.85L362.62-24.85Q365.02-24.85 366.72-23.98 368.42-23.1 369.67-21.95L369.67-21.95 367.77-19.55Q366.72-20.55 365.49-21.18 364.27-21.8 362.77-21.8L362.77-21.8Q360.47-21.8 358.69-20.58 356.92-19.35 355.89-17.15 354.87-14.95 354.87-12.1L354.87-12.1Q354.87-9.2 355.84-7.03 356.82-4.85 358.57-3.65 360.32-2.45 362.67-2.45L362.67-2.45Q364.42-2.45 365.92-3.18 367.42-3.9 368.57-4.95L368.57-4.95 370.17-2.5Q368.57-1.05 366.57-0.23 364.57 0.6 362.37 0.6ZM388.5 0.6L388.5 0.6Q385.3 0.6 382.7-0.93 380.1-2.45 378.55-5.28 377-8.1 377-12.1L377-12.1Q377-16 378.55-18.88 380.1-21.75 382.57-23.3 385.05-24.85 387.85-24.85L387.85-24.85Q390.85-24.85 393-23.45 395.15-22.05 396.27-19.53 397.4-17 397.4-13.5L397.4-13.5Q397.4-12.95 397.35-12.35 397.3-11.75 397.2-11.3L397.2-11.3 379.85-11.3 379.8-13.95 394.15-13.95Q394.15-17.85 392.5-19.88 390.85-21.9 387.9-21.9L387.9-21.9Q386.1-21.9 384.4-20.88 382.7-19.85 381.6-17.68 380.5-15.5 380.5-12.1L380.5-12.1Q380.5-8.85 381.65-6.7 382.8-4.55 384.72-3.45 386.65-2.35 388.95-2.35L388.95-2.35Q390.75-2.35 392.25-2.9 393.75-3.45 395.1-4.3L395.1-4.3 396.45-1.9Q394.9-0.9 392.97-0.15 391.05 0.6 388.5 0.6ZM412.93 0.6L412.93 0.6Q410.33 0.6 407.98-0.38 405.63-1.35 403.93-2.75L403.93-2.75 405.78-5.2Q407.33-3.95 409.05-3.1 410.78-2.25 413.08-2.25L413.08-2.25Q415.58-2.25 416.83-3.45 418.08-4.65 418.08-6.3L418.08-6.3Q418.08-7.6 417.23-8.47 416.38-9.35 415.1-9.98 413.83-10.6 412.43-11.1L412.43-11.1Q410.73-11.7 409.03-12.55 407.33-13.4 406.2-14.7 405.08-16 405.08-18.05L405.08-18.05Q405.08-20.9 407.25-22.88 409.43-24.85 413.33-24.85L413.33-24.85Q415.53-24.85 417.43-24.05 419.33-23.25 420.68-22.15L420.68-22.15 418.93-19.8Q417.68-20.7 416.35-21.33 415.03-21.95 413.33-21.95L413.33-21.95Q410.93-21.95 409.78-20.83 408.63-19.7 408.63-18.25L408.63-18.25Q408.63-17.05 409.4-16.28 410.18-15.5 411.43-14.95 412.68-14.4 414.08-13.85L414.08-13.85Q415.88-13.2 417.6-12.38 419.33-11.55 420.48-10.2 421.63-8.85 421.63-6.5L421.63-6.5Q421.63-4.6 420.63-2.98 419.63-1.35 417.68-0.38 415.73 0.6 412.93 0.6ZM449.49 0.6L449.49 0.6Q447.49 0.6 445.89-0.2 444.29-1 443.34-2.53 442.39-4.05 442.39-6.2L442.39-6.2Q442.39-10.2 446.02-12.33 449.64-14.45 457.49-15.3L457.49-15.3Q457.49-16.9 457.07-18.43 456.64-19.95 455.52-20.88 454.39-21.8 452.29-21.8L452.29-21.8Q450.09-21.8 448.22-20.95 446.34-20.1 444.94-19.15L444.94-19.15 443.49-21.65Q444.54-22.35 445.99-23.1 447.44-23.85 449.19-24.35 450.94-24.85 452.89-24.85L452.89-24.85Q455.79-24.85 457.62-23.6 459.44-22.35 460.27-20.15 461.09-17.95 461.09-15L461.09-15 461.09 0 458.09 0 457.79-2.95 457.64-2.95Q455.89-1.5 453.84-0.45 451.79 0.6 449.49 0.6ZM450.44-2.35L450.44-2.35Q452.29-2.35 453.94-3.23 455.59-4.1 457.49-5.75L457.49-5.75 457.49-12.85Q453.19-12.35 450.69-11.48 448.19-10.6 447.09-9.35 445.99-8.1 445.99-6.45L445.99-6.45Q445.99-4.3 447.32-3.33 448.64-2.35 450.44-2.35ZM480.42 0.6L480.42 0.6Q475.92 0.6 473.2-2.73 470.47-6.05 470.47-12.1L470.47-12.1Q470.47-16 471.95-18.85 473.42-21.7 475.82-23.28 478.22-24.85 481.02-24.85L481.02-24.85Q483.17-24.85 484.75-24.1 486.32-23.35 487.92-22L487.92-22 487.77-26.2 487.77-35.7 491.37-35.7 491.37 0 488.37 0 488.07-2.95 487.92-2.95Q486.52-1.5 484.6-0.45 482.67 0.6 480.42 0.6ZM481.22-2.5L481.22-2.5Q482.97-2.5 484.57-3.38 486.17-4.25 487.77-5.95L487.77-5.95 487.77-19.1Q486.12-20.55 484.65-21.15 483.17-21.75 481.57-21.75L481.57-21.75Q479.52-21.75 477.85-20.53 476.17-19.3 475.2-17.13 474.22-14.95 474.22-12.1L474.22-12.1Q474.22-7.65 476.05-5.08 477.87-2.5 481.22-2.5ZM512.5 0L508.3 0 499.45-24.25 503.2-24.25 508-10.1Q508.55-8.35 509.15-6.55 509.75-4.75 510.3-3L510.3-3 510.5-3Q511.05-4.75 511.65-6.55 512.25-8.35 512.8-10.1L512.8-10.1 517.6-24.25 521.2-24.25 512.5 0ZM532.88 0L529.28 0 529.28-24.25 532.88-24.25 532.88 0ZM531.13-29.45L531.13-29.45Q530.08-29.45 529.36-30.15 528.63-30.85 528.63-32L528.63-32Q528.63-33.05 529.36-33.75 530.08-34.45 531.13-34.45L531.13-34.45Q532.23-34.45 532.93-33.75 533.63-33.05 533.63-32L533.63-32Q533.63-30.85 532.93-30.15 532.23-29.45 531.13-29.45ZM550.82 0.6L550.82 0.6Q548.22 0.6 545.87-0.38 543.52-1.35 541.82-2.75L541.82-2.75 543.67-5.2Q545.22-3.95 546.94-3.1 548.67-2.25 550.97-2.25L550.97-2.25Q553.47-2.25 554.72-3.45 555.97-4.65 555.97-6.3L555.97-6.3Q555.97-7.6 555.12-8.47 554.27-9.35 552.99-9.98 551.72-10.6 550.32-11.1L550.32-11.1Q548.62-11.7 546.92-12.55 545.22-13.4 544.09-14.7 542.97-16 542.97-18.05L542.97-18.05Q542.97-20.9 545.14-22.88 547.32-24.85 551.22-24.85L551.22-24.85Q553.42-24.85 555.32-24.05 557.22-23.25 558.57-22.15L558.57-22.15 556.82-19.8Q555.57-20.7 554.24-21.33 552.92-21.95 551.22-21.95L551.22-21.95Q548.82-21.95 547.67-20.83 546.52-19.7 546.52-18.25L546.52-18.25Q546.52-17.05 547.29-16.28 548.07-15.5 549.32-14.95 550.57-14.4 551.97-13.85L551.97-13.85Q553.77-13.2 555.49-12.38 557.22-11.55 558.37-10.2 559.52-8.85 559.52-6.5L559.52-6.5Q559.52-4.6 558.52-2.98 557.52-1.35 555.57-0.38 553.62 0.6 550.82 0.6ZM577.9 0.6L577.9 0.6Q574.95 0.6 572.4-0.9 569.85-2.4 568.3-5.23 566.75-8.05 566.75-12.1L566.75-12.1Q566.75-16.1 568.3-18.98 569.85-21.85 572.4-23.35 574.95-24.85 577.9-24.85L577.9-24.85Q580.85-24.85 583.37-23.35 585.9-21.85 587.47-18.98 589.05-16.1 589.05-12.1L589.05-12.1Q589.05-8.05 587.47-5.23 585.9-2.4 583.37-0.9 580.85 0.6 577.9 0.6ZM577.9-2.45L577.9-2.45Q580.1-2.45 581.77-3.65 583.45-4.85 584.37-7.03 585.3-9.2 585.3-12.1L585.3-12.1Q585.3-14.95 584.37-17.15 583.45-19.35 581.77-20.58 580.1-21.8 577.9-21.8L577.9-21.8Q575.75-21.8 574.07-20.58 572.4-19.35 571.47-17.15 570.55-14.95 570.55-12.1L570.55-12.1Q570.55-9.2 571.47-7.03 572.4-4.85 574.07-3.65 575.75-2.45 577.9-2.45ZM602.48 0L598.88 0 598.88-24.25 601.88-24.25 602.18-19.8 602.33-19.8Q603.58-22.1 605.35-23.48 607.13-24.85 609.23-24.85L609.23-24.85Q609.98-24.85 610.58-24.73 611.18-24.6 611.73-24.35L611.73-24.35 611.03-21.15Q610.43-21.35 609.95-21.45 609.48-21.55 608.73-21.55L608.73-21.55Q607.18-21.55 605.48-20.28 603.78-19 602.48-15.8L602.48-15.8 602.48 0Z" opacity="1" transform="matrix(1,0,0,1,0,0)" fill="#ffffff" class="slogan-text-1" data-fill-palette-color="quaternary" id="text-1"></path></svg></g></svg></g></svg></g></svg></g><g><svg viewBox="0 0 48.99871033962067 67.06877726709273" height="67.06877726709273" width="48.99871033962067"><g><svg xmlns="http://www.w3.org/2000/svg" viewBox="12.409090848504258 4.933164639037914 39.54029248627865 54.12222181883763" x="0" y="0" height="67.06877726709273" width="48.99871033962067" class="icon-icon-0" data-fill-palette-color="quaternary" id="icon-0"><g fill="#ffffff" data-fill-palette-color="quaternary"><path d="M50.91 22.63A18.58 18.58 0 0 0 13.81 22.31L12.46 37.87A19.77 19.77 0 1 0 51.92 38.21ZM38.5 16A1.5 1.5 0 1 1 37 17.5 1.5 1.5 0 0 1 38.5 16M25.5 16A1.5 1.5 0 1 1 24 17.5 1.5 1.5 0 0 1 25.5 16M42.39 37.85A6 6 0 0 1 41.84 38.13L41.08 53.46A1.62 1.62 0 0 1 37.85 53.54L36.38 38.85 36.05 38.78A9 9 0 0 1 32.05 36.71 9.1 9.1 0 0 1 27.98 38.79L27.67 38.85 26.15 53.54A1.62 1.62 0 0 1 22.92 53.46L22.16 38.13A6 6 0 0 1 21.61 37.85 9 9 0 0 1 28.61 21.39 2.4 2.4 0 0 1 30.37 20.62H33.59A2.37 2.37 0 0 1 35.34 21.4 8.7 8.7 0 0 1 38 21 9 9 0 0 1 42.39 37.85" fill="#ffffff" data-fill-palette-color="quaternary"></path><path d="M38 23A7.3 7.3 0 0 0 36 23.29 2 2 0 0 1 36 23.57 1.3 1.3 0 0 1 35.91 23.85 1.6 1.6 0 0 1 35.79 24.12 2 2 0 0 1 35.64 24.37 1.7 1.7 0 0 1 35.43 24.63 1 1 0 0 1 35.25 24.8 2.1 2.1 0 0 1 34.76 25.14L32.52 26.26A1 1 0 0 1 31.62 26.26L29.39 25.14A2.5 2.5 0 0 1 28.5 24.37 2 2 0 0 1 28.35 24.12 1.6 1.6 0 0 1 28.23 23.85 1.3 1.3 0 0 1 28.14 23.57 2 2 0 0 1 28.09 23.29 7.3 7.3 0 0 0 26 23 7 7 0 1 0 26 37 6.4 6.4 0 0 0 27.49 36.84 7 7 0 0 0 31.25 34.63 1 1 0 0 1 32.75 34.63 6.94 6.94 0 0 0 36.49 36.83 7.07 7.07 0 0 0 41.41 36.11 7 7 0 0 0 38 23" fill="#ffffff" data-fill-palette-color="quaternary"></path><path d="M30 23V22.88Z" fill="#ffffff" data-fill-palette-color="quaternary"></path><path d="M34 23A0.3 0.3 0 0 0 34 22.9 1 1 0 0 0 34 23" fill="#ffffff" data-fill-palette-color="quaternary"></path></g></svg></g></svg></g></svg></g></svg></g></svg></g></svg></g><defs></defs></svg><rect width="342.85155851775386" height="342.85155851775386" fill="none" stroke="none" visibility="hidden"></rect></g></svg></g></svg>